<?xml version="1.0" encoding="UTF-8"?>
<svg version="1.1" xmlns="http://www.w3.org/2000/svg" width="1120" height="1120">
<path d="M0 0 C369.6 0 739.2 0 1120 0 C1120 369.6 1120 739.2 1120 1120 C750.4 1120 380.8 1120 0 1120 C0 750.4 0 380.8 0 0 Z " fill="#FCFDFB" transform="translate(0,0)"/>
<path d="M0 0 C1.734375 0.96875 1.734375 0.96875 4.734375 3.28125 C5.71051758 4.00143311 6.68666016 4.72161621 7.69238281 5.46362305 C11.06791863 8.30152679 12.72717396 11.66117341 14.40625 15.67578125 C14.88589455 16.7667662 14.88589455 16.7667662 15.37522888 17.87979126 C16.42615363 20.2783925 17.45489766 22.68587561 18.484375 25.09375 C19.22521071 26.79316685 19.96783962 28.49180298 20.7121582 30.18969727 C22.27122597 33.7485919 23.82343156 37.31036728 25.37158203 40.87402344 C28.77199122 48.68011003 32.27805458 56.4384436 35.78341675 64.19781494 C37.30326829 67.56328489 38.81905588 70.93057897 40.3349762 74.29782104 C42.13368603 78.29278851 43.93405652 82.28700728 45.734375 86.28125 C46.21583984 87.34956055 46.21583984 87.34956055 46.70703125 88.43945312 C53.69274895 103.93901428 60.70181791 119.42788316 67.734375 134.90625 C68.04434418 135.58871796 68.35431335 136.27118591 68.67367554 136.97433472 C69.27624528 138.30078576 69.87915371 139.62708301 70.48242188 140.95321655 C71.06188291 142.22822844 71.6399528 143.50387357 72.21655273 144.78018188 C73.59714675 147.82761374 75.01061787 150.84660311 76.47973633 153.85327148 C80.69727789 162.54996081 82.22128838 168.56600392 80.734375 178.28125 C78.43079184 184.62825338 73.48382438 189.45459517 67.44921875 192.39453125 C61.40670708 194.36812859 54.40956919 194.07390013 48.359375 192.28125 C39.11049144 185.23448157 35.7338699 176.05727265 31.61914062 165.49951172 C30.79514085 163.43360058 29.9099007 161.40807004 29 159.37890625 C27.734375 156.28125 27.734375 156.28125 27.734375 153.28125 C27.074375 153.28125 26.414375 153.28125 25.734375 153.28125 C25.50105469 154.11914062 25.26773438 154.95703125 25.02734375 155.8203125 C23.51462904 159.86945218 21.47453493 163.10465671 19.046875 166.65625 C18.59844238 167.3167334 18.15000977 167.9772168 17.68798828 168.65771484 C14.35542568 173.50323462 11.02186646 178.22362405 6.734375 182.28125 C6.19167969 182.80460938 5.64898437 183.32796875 5.08984375 183.8671875 C-1.32845184 188.92911125 -9.56398524 188.1086989 -17.265625 187.28125 C-27.14050217 184.96492079 -32.70848968 175.36449993 -37.74487305 167.31689453 C-44.265625 156.71242876 -44.265625 156.71242876 -44.265625 154.28125 C-44.925625 154.28125 -45.585625 154.28125 -46.265625 154.28125 C-46.43143066 154.8062207 -46.59723633 155.33119141 -46.76806641 155.87207031 C-48.76929418 162.05522988 -51.11320501 168.04570468 -53.640625 174.03125 C-54.01445312 174.95035156 -54.38828125 175.86945313 -54.7734375 176.81640625 C-57.85444633 184.10742371 -61.58010634 189.16319315 -68.89453125 192.55078125 C-75.00755681 194.43403624 -81.76452437 194.31909338 -87.640625 191.71875 C-93.33590946 188.37277038 -97.2047382 183.52860192 -99.265625 177.28125 C-100.45237948 169.83515334 -99.37981173 163.63365615 -96.19921875 156.859375 C-95.8861377 156.16919785 -95.57305664 155.47902069 -95.25048828 154.76792908 C-94.59236987 153.32061918 -93.92928869 151.87555641 -93.26144409 150.43270874 C-92.30799926 148.37279923 -91.36758774 146.30752127 -90.43188477 144.23950195 C-88.88425845 140.82412969 -87.32403037 137.41470386 -85.75909424 134.00723267 C-84.00555408 130.18853995 -82.25717647 126.36748215 -80.5078125 122.546875 C-80.15117523 121.76830643 -79.79453796 120.98973785 -79.42709351 120.18757629 C-73.68737226 107.65570732 -67.98295533 95.10783907 -62.2947998 82.55249023 C-61.2090976 80.15650219 -60.12260367 77.76087395 -59.03613281 75.36523438 C-56.69151055 70.19341468 -54.35243907 65.01910176 -52.015625 59.84375 C-51.6316153 58.99420746 -51.24760559 58.14466492 -50.85195923 57.26937866 C-47.11364079 48.99134096 -43.39688569 40.71067267 -39.92578125 32.31640625 C-39.43561523 31.13296631 -38.94544922 29.94952637 -38.44042969 28.73022461 C-37.57347222 26.61487946 -36.71740978 24.49501185 -35.87597656 22.36938477 C-32.31365998 13.62723064 -27.9049185 4.79724433 -19.265625 0.28125 C-13.43687915 -1.66166528 -5.88420226 -1.86671244 0 0 Z " fill="#459A90" transform="translate(206.265625,463.71875)"/>
<path d="M0 0 C2.83507701 1.39669235 5.13878748 2.93566248 7.375 5.171875 C7.82875 4.3675 8.2825 3.563125 8.75 2.734375 C10.375 0.171875 10.375 0.171875 12.375 -0.828125 C19.84166667 -1.18368056 19.84166667 -1.18368056 23.375 1.171875 C23.76268005 3.35044861 23.76268005 3.35044861 23.77905273 6.08959961 C23.79173691 7.11504379 23.80442108 8.14048798 23.81748962 9.19700623 C23.81455399 10.31148636 23.81161835 11.42596649 23.80859375 12.57421875 C23.8138356 13.72169083 23.81907745 14.8691629 23.82447815 16.05140686 C23.83091526 18.48844595 23.82953968 20.92551604 23.82104492 23.36254883 C23.81260521 27.06324113 23.84116061 30.7623538 23.87304688 34.46289062 C23.87466087 36.83333287 23.87407757 39.20377783 23.87109375 41.57421875 C23.88232773 42.6704808 23.89356171 43.76674286 23.90513611 44.89622498 C23.82439446 53.96637684 22.41364429 62.57241716 15.75 69.171875 C6.45423588 76.24547653 -5.38636821 76.39375414 -16.625 75.171875 C-21.63794806 73.95299371 -26.35033069 72.34527058 -29.625 68.171875 C-29.45766624 63.57019647 -28.76532517 60.58527192 -25.625 57.171875 C-22.90208995 57.7842325 -20.83055992 58.53967133 -18.25 59.734375 C-12.05756865 62.11787688 -3.57376776 62.63265226 2.6875 60.31640625 C5.47013943 58.42910682 6.22199367 56.2849921 7.375 53.171875 C7.60528594 50.44764133 7.51686568 47.91461145 7.375 45.171875 C6.653125 45.790625 5.93125 46.409375 5.1875 47.046875 C-1.48362975 52.08728415 -8.51689093 52.0615657 -16.625 51.171875 C-23.6161293 48.64247574 -28.03831432 43.18110646 -31.4375 36.734375 C-34.07406692 28.79419371 -34.05679687 19.23224706 -30.5625 11.609375 C-23.94468755 0.31021226 -12.70670482 -4.00866283 0 0 Z " fill="#0D2028" transform="translate(915.625,567.828125)"/>
<path d="M0 0 C1.71633911 2.48304749 1.71633911 2.48304749 3.05126953 5.41430664 C3.79476654 7.02440109 3.79476654 7.02440109 4.55328369 8.66702271 C5.26940826 10.31684647 5.26940826 10.31684647 6 12 C6.65739166 13.50734207 6.65739166 13.50734207 7.32806396 15.0451355 C8.6449704 18.14123053 9.91884373 21.25176738 11.1796875 24.37109375 C11.86612839 26.05912865 11.86612839 26.05912865 12.56643677 27.78126526 C13.52177137 30.13561633 14.47453614 32.49101171 15.42480469 34.84741211 C16.88264665 38.45642997 18.35501568 42.05930068 19.828125 45.66210938 C20.75869867 47.96057892 21.68841712 50.25939494 22.6171875 52.55859375 C23.27797806 54.16957191 23.27797806 54.16957191 23.95211792 55.81309509 C24.35318756 56.81506424 24.7542572 57.81703339 25.16748047 58.84936523 C25.52244598 59.72584213 25.8774115 60.60231903 26.24313354 61.50535583 C27.05542098 64.18266847 27.28917711 66.21958547 27 69 C24.30898766 71.69101234 22.80924054 71.29887549 19.0625 71.3125 C18.00160156 71.32925781 16.94070313 71.34601563 15.84765625 71.36328125 C13 71 13 71 10 68 C8.68 64.7 7.36 61.4 6 58 C-4.89 58 -15.78 58 -27 58 C-28.98 62.95 -28.98 62.95 -31 68 C-34 71 -34 71 -36.8828125 71.328125 C-37.95273437 71.30234375 -39.02265625 71.2765625 -40.125 71.25 C-41.20007813 71.23453125 -42.27515625 71.2190625 -43.3828125 71.203125 C-46 71 -46 71 -47 70 C-47.47624163 64.17906226 -46.22256824 60.12488336 -44 54.890625 C-43.68838928 54.12982132 -43.37677856 53.36901764 -43.0557251 52.5851593 C-42.04884584 50.1350854 -41.02484334 47.69260714 -40 45.25 C-39.30596468 43.57194705 -38.6129323 41.89347895 -37.92089844 40.21459961 C-36.25271722 36.17563138 -34.57085652 32.14255895 -32.88305664 28.11175537 C-31.69098966 25.26102788 -30.50956449 22.40592669 -29.328125 19.55078125 C-21.46007256 0.62965515 -21.46007256 0.62965515 -18 -2 C-11.67060554 -4.57864219 -5.63359932 -3.35393886 0 0 Z " fill="#31866E" transform="translate(361,549)"/>
<path d="M0 0 C0.66 0 1.32 0 2 0 C2.3309668 0.76739502 2.66193359 1.53479004 3.00292969 2.32543945 C10.03224079 18.61307412 17.12102662 34.87124264 24.34375 51.07421875 C24.77945313 52.0595459 25.21515625 53.04487305 25.6640625 54.06005859 C26.58171069 56.07948832 27.53714638 58.08204006 28.5234375 60.06884766 C29.00039062 61.04257324 29.47734375 62.01629883 29.96875 63.01953125 C30.40638672 63.88296143 30.84402344 64.7463916 31.29492188 65.63598633 C32 68 32 68 31.3425293 70.15454102 C29.89090926 72.14995761 28.63603956 73.20210277 26.55078125 74.5078125 C25.86693359 74.93707031 25.18308594 75.36632812 24.47851562 75.80859375 C23.76373047 76.24300781 23.04894531 76.67742187 22.3125 77.125 C21.61705078 77.56714844 20.92160156 78.00929688 20.20507812 78.46484375 C11.56422314 83.80587643 3.08554206 85.21591035 -7 84 C-11.40282588 82.54840165 -15.11468643 80.51026432 -19 78 C-19.99128906 77.36191406 -20.98257813 76.72382812 -22.00390625 76.06640625 C-27.2638943 72.31345233 -27.2638943 72.31345233 -29 70 C-28.66669724 64.81887143 -27.25945537 60.89803595 -24.98046875 56.26953125 C-24.34147037 54.94813623 -23.70401289 53.62599526 -23.06787109 52.30322266 C-22.56196442 51.25814545 -22.56196442 51.25814545 -22.0458374 50.19195557 C-20.21208126 46.34861244 -18.47755131 42.46101229 -16.73828125 38.57421875 C-16.37644745 37.767034 -16.01461365 36.95984924 -15.64181519 36.12820435 C-14.90342879 34.47986417 -14.16564902 32.83125212 -13.4284668 31.18237305 C-12.3055508 28.67196425 -11.1792224 26.16310449 -10.05273438 23.65429688 C-6.54698787 15.8294614 -3.05230022 8.01628408 0 0 Z " fill="#F7FDFA" transform="translate(196,538)"/>
<path d="M0 0 C0.7425 0.5775 1.485 1.155 2.25 1.75 C1.77389341 6.74911924 0.21837781 9.72832683 -2.75 13.75 C-6.16457449 13.33358848 -8.6776081 12.78770412 -11.75 11.1875 C-17.2653846 8.67713436 -23.8512012 9.03879731 -29.75 9.75 C-32.65079252 10.9257682 -32.65079252 10.9257682 -34.75 12.75 C-35.16746608 15.87635209 -35.16746608 15.87635209 -34.75 18.75 C-29.6123264 21.74697626 -24.65401769 23.36346448 -18.875 24.6875 C-9.44565368 26.8996314 -1.44409721 29.48437502 4.25 37.75 C6.6398457 42.5296914 5.88800744 49.871431 4.75390625 54.98828125 C2.21930012 61.44651496 -2.50575778 64.91234954 -8.4921875 67.85546875 C-19.79289174 72.33273739 -31.90438691 72.28764095 -43.1796875 67.87890625 C-44.02789063 67.50636719 -44.87609375 67.13382813 -45.75 66.75 C-46.49507812 66.44964844 -47.24015625 66.14929688 -48.0078125 65.83984375 C-49.9375 64.9375 -49.9375 64.9375 -52.75 62.75 C-53.9375 59.375 -53.9375 59.375 -53.75 55.75 C-51.8125 52.3125 -51.8125 52.3125 -49.75 49.75 C-44.96384318 50.33367766 -41.15189827 51.82917167 -36.75 53.75 C-32.73998327 54.76798023 -28.87983906 54.94659691 -24.75 55 C-23.55375 55.02578125 -22.3575 55.0515625 -21.125 55.078125 C-17.4632613 54.72212263 -15.58110694 54.08181228 -12.75 51.75 C-12.33274322 48.12400578 -12.33274322 48.12400578 -12.75 44.75 C-18.103487 42.26317271 -23.33038293 40.78704073 -29.0625 39.4375 C-45.60004835 35.29993017 -45.60004835 35.29993017 -50.4375 28.3125 C-53.53359307 22.26774687 -53.89484188 15.01581212 -52.13671875 8.46484375 C-49.74748499 3.0022344 -45.99131976 -0.49637702 -40.75 -3.25 C-27.34904379 -8.33047696 -12.19992972 -7.99995391 0 0 Z " fill="#0D2129" transform="translate(668.75,551.25)"/>
<path d="M0 0 C0.83563477 0.01095703 1.67126953 0.02191406 2.53222656 0.03320312 C10.35892879 0.30761029 15.86825137 2.0643421 21.66796875 7.46484375 C28.23288591 14.51705373 30.21099736 20.49079213 29.96875 30.08984375 C29.14452026 38.41643733 24.92002494 45.11748822 18.625 50.5625 C9.94170446 55.71587951 0.48549006 56.92044107 -9.3125 54.625 C-16.87964159 52.11048961 -23.30143684 46.37102546 -27 39.3125 C-30.04625933 31.00056383 -29.38662273 21.7512179 -25.69921875 13.78125 C-19.89800537 4.06122286 -11.08148207 -0.20546077 0 0 Z " fill="#3D997C" transform="translate(579.375,566.4375)"/>
<path d="M0 0 C0.89436768 -0.01450195 1.78873535 -0.02900391 2.71020508 -0.04394531 C9.90613363 0.0651343 15.52435209 1.71185209 20.6875 6.875 C24.47800583 12.91173151 25.82891577 17.7151155 25.73828125 24.83203125 C25.73902901 25.97535164 25.73902901 25.97535164 25.73979187 27.14176941 C25.7374666 28.7393151 25.72783027 30.33686554 25.71118164 31.93432617 C25.68739731 34.38558338 25.69065559 36.83576459 25.69726562 39.28710938 C25.69169428 40.8437565 25.68458783 42.40039906 25.67578125 43.95703125 C25.67714836 45.05698174 25.67714836 45.05698174 25.67854309 46.17915344 C25.60610567 51.33139433 25.60610567 51.33139433 23.375 53.5625 C20.5546875 53.7578125 20.5546875 53.7578125 17.25 53.6875 C16.15429688 53.66945313 15.05859375 53.65140625 13.9296875 53.6328125 C13.08664062 53.60960937 12.24359375 53.58640625 11.375 53.5625 C11.375 51.9125 11.375 50.2625 11.375 48.5625 C10.715 48.5625 10.055 48.5625 9.375 48.5625 C9.045 49.5525 8.715 50.5425 8.375 51.5625 C2.97234442 55.39954043 -3.19240659 56.31901699 -9.68359375 56.0703125 C-14.63161902 55.21607175 -18.14593949 53.15600328 -21.625 49.5625 C-24.52503774 44.96147859 -25.39133554 39.92684876 -24.625 34.5625 C-22.4590019 29.45074449 -19.7787646 26.02605909 -14.79858398 23.33666992 C-10.39354388 21.76771764 -5.80159433 22.15639531 -1.1875 22.3125 C0.33907227 22.33957031 0.33907227 22.33957031 1.89648438 22.3671875 C4.39031655 22.41402003 6.88215047 22.47958573 9.375 22.5625 C8.10525028 18.14727891 8.10525028 18.14727891 5.375 14.5625 C-2.84070332 13.7223816 -10.01645864 14.41413806 -17.625 17.5625 C-18.51922914 16.3261832 -19.38987891 15.07278438 -20.25 13.8125 C-20.73726562 13.11640625 -21.22453125 12.4203125 -21.7265625 11.703125 C-22.625 9.5625 -22.625 9.5625 -22.01171875 7.46875 C-16.78610696 0.2853738 -8.15077064 0.07091943 0 0 Z " fill="#0F232A" transform="translate(703.625,566.4375)"/>
<path d="M0 0 C2.83995115 0.95020922 3.81795172 1.71789837 5.45703125 4.2578125 C5.90433594 5.20398438 6.35164063 6.15015625 6.8125 7.125 C7.31652344 8.18460938 7.82054687 9.24421875 8.33984375 10.3359375 C11.31571898 16.85142388 14.17646803 23.41732783 17 30 C19.37482583 27.62517417 20.16719909 25.54034393 21.4609375 22.44140625 C21.93273437 21.33345703 22.40453125 20.22550781 22.890625 19.08398438 C23.87763397 16.74243546 24.85943712 14.39868515 25.8359375 12.05273438 C26.3103125 10.94349609 26.7846875 9.83425781 27.2734375 8.69140625 C27.70060059 7.67248291 28.12776367 6.65355957 28.56787109 5.60375977 C30.09773255 2.82231203 31.25636882 1.55886649 34 0 C38.25812212 -0.38018947 41.35187527 -0.33479983 45 2 C44.47221229 7.18707936 43.20701276 11.40311842 40.97265625 16.12890625 C40.6681102 16.79245117 40.36356415 17.45599609 40.04978943 18.13964844 C39.06284845 20.28480411 38.06320157 22.42373336 37.0625 24.5625 C36.37555359 26.04449378 35.68936066 27.52683704 35.00390625 29.00952148 C33.97423506 31.23657927 32.94393265 33.4633134 31.90994263 35.68836975 C29.89518473 40.03032535 27.93430907 44.39050065 26.02734375 48.78125 C25.59349365 49.77181396 25.15964355 50.76237793 24.71264648 51.78295898 C23.93438262 53.56683943 23.16606098 55.35510946 22.41040039 57.14868164 C19.28180674 64.24011285 15.16755464 71.06030955 7.6875 74 C2.81835023 75.31802847 -1.99324985 75.28221765 -7 75 C-7.02705729 73.22925083 -7.04642195 71.45838289 -7.0625 69.6875 C-7.07410156 68.70136719 -7.08570313 67.71523438 -7.09765625 66.69921875 C-7 64 -7 64 -6 61 C-4.96939453 60.85304688 -4.96939453 60.85304688 -3.91796875 60.703125 C-3.01691406 60.55359375 -2.11585938 60.4040625 -1.1875 60.25 C-0.29417969 60.11078125 0.59914063 59.9715625 1.51953125 59.828125 C4.65976431 58.77973223 5.46619783 57.92244956 7 55 C8.28692815 49.44231486 7.80347798 46.4908592 5.24609375 41.4296875 C4.94816422 40.82673859 4.65023468 40.22378967 4.34327698 39.60256958 C3.39120904 37.68457126 2.41539167 35.77993976 1.4375 33.875 C0.80756135 32.62063567 0.1792922 31.36543147 -0.44726562 30.109375 C-1.37959756 28.24252333 -2.31210405 26.37577271 -3.24697876 24.51019287 C-4.16666511 22.67445974 -5.08373042 20.83744064 -6 19 C-6.3063739 18.38821899 -6.6127478 17.77643799 -6.92840576 17.14611816 C-7.80766705 15.37722708 -8.66788031 13.59890708 -9.52734375 11.8203125 C-10.0287085 10.79437988 -10.53007324 9.76844727 -11.04663086 8.71142578 C-12.05377118 5.84707228 -12.29994179 4.71898523 -11 2 C-7.34716253 -0.43522498 -4.25031548 -0.55474367 0 0 Z " fill="#3A967A" transform="translate(395,567)"/>
<path d="M0 0 C0.76183594 -0.01675781 1.52367187 -0.03351562 2.30859375 -0.05078125 C5.27636415 0.42755956 6.44731561 1.1596225 8.5625 3.3125 C9.06079102 6.52709961 9.06079102 6.52709961 9.06640625 10.46484375 C9.07582748 11.16138565 9.08524872 11.85792755 9.09495544 12.57557678 C9.1236244 14.80068365 9.12668345 17.02472331 9.125 19.25 C9.12860993 21.47155053 9.13817398 23.69232309 9.16575623 25.91371155 C9.19024737 27.93184906 9.19247829 29.95022006 9.19360352 31.96850586 C9.57981622 35.46946907 10.06722252 36.87998971 12.5625 39.3125 C14.88765014 39.98174635 14.88765014 39.98174635 17.4375 39.875 C18.28054688 39.89691406 19.12359375 39.91882813 19.9921875 39.94140625 C23.72516557 39.028018 25.15166259 37.26513762 27.5625 34.3125 C28.27325555 30.89306017 28.27325555 30.89306017 28.12890625 27.1484375 C28.13454086 26.47454987 28.14017548 25.80066223 28.14598083 25.10635376 C28.16236958 22.96601747 28.14693288 20.82776301 28.125 18.6875 C28.10839791 16.54029646 28.09930121 14.3944473 28.11473083 12.2472229 C28.12825379 10.30466344 28.11283342 8.36196673 28.09594727 6.41943359 C28.5625 3.3125 28.5625 3.3125 30.37475586 1.40087891 C33.56474352 -0.18610524 36.04606508 0.0040408 39.5625 0.3125 C41.24355948 0.94199286 42.91375666 1.60266367 44.5625 2.3125 C44.58776787 9.41494999 44.60533201 16.51738848 44.61743164 23.61987305 C44.62247349 26.03817172 44.62930678 28.45646733 44.63793945 30.87475586 C44.65001157 34.34229283 44.65572963 37.80978966 44.66015625 41.27734375 C44.66531754 42.36587143 44.67047882 43.45439911 44.67579651 44.57591248 C44.67587204 45.57687454 44.67594757 46.57783661 44.67602539 47.60913086 C44.678246 48.49515488 44.68046661 49.38117889 44.68275452 50.29405212 C44.5625 52.3125 44.5625 52.3125 43.5625 53.3125 C41.56450428 53.41123816 39.56292842 53.44221799 37.5625 53.4375 C36.469375 53.44007813 35.37625 53.44265625 34.25 53.4453125 C31.5625 53.3125 31.5625 53.3125 30.5625 52.3125 C30.52169217 50.31291636 30.51995644 48.31204746 30.5625 46.3125 C29.9025 46.3125 29.2425 46.3125 28.5625 46.3125 C28.315 46.910625 28.0675 47.50875 27.8125 48.125 C25.70060867 51.82080983 23.32612859 53.02801092 19.375 54.5 C12.28918246 56.01009226 6.71332551 56.15392201 0.28515625 52.51171875 C-4.27343723 49.33827612 -6.02303523 45.53664509 -7.4375 40.3125 C-7.72349365 37.36782795 -7.74167568 34.44139419 -7.73828125 31.484375 C-7.74256638 30.65415833 -7.7468515 29.82394165 -7.75126648 28.96856689 C-7.75698395 27.22384552 -7.75752919 25.47910031 -7.75317383 23.734375 C-7.74999333 21.05688531 -7.77357469 18.38047994 -7.79882812 15.703125 C-7.80109924 14.00520973 -7.80180549 12.30729148 -7.80078125 10.609375 C-7.809991 9.80731628 -7.81920074 9.00525757 -7.82868958 8.17889404 C-7.80981445 5.93261719 -7.80981445 5.93261719 -7.4375 2.3125 C-4.35229997 0.25569998 -3.52476496 0.01783186 0 0 Z " fill="#3B9A7B" transform="translate(453.4375,566.6875)"/>
<path d="M0 0 C2.4375 0.5 2.4375 0.5 4 1 C4 2.98 4 4.96 4 7 C4.83144531 6.36771484 4.83144531 6.36771484 5.6796875 5.72265625 C6.76636719 4.90087891 6.76636719 4.90087891 7.875 4.0625 C8.59429688 3.51722656 9.31359375 2.97195313 10.0546875 2.41015625 C15.52185537 -1.55299154 23.48549843 -0.73183475 30 0 C34.11665285 1.22306353 36.63901628 3.15097822 39.17919922 6.60205078 C43.11191261 14.09320763 42.53393202 22.14185938 42.41162109 30.37719727 C42.37474058 32.95563672 42.37060495 35.53265044 42.37109375 38.11132812 C42.3612745 39.75001248 42.34962273 41.38868712 42.3359375 43.02734375 C42.33371185 43.79811752 42.33148621 44.5688913 42.32919312 45.36302185 C42.23227696 50.76772304 42.23227696 50.76772304 40 53 C37.25 53.265625 37.25 53.265625 34 53.25 C32.9275 53.25515625 31.855 53.2603125 30.75 53.265625 C28 53 28 53 26 51 C25.74462891 47.89892578 25.74462891 47.89892578 25.7265625 43.9453125 C25.70627012 42.51171099 25.68541928 41.0781173 25.6640625 39.64453125 C25.64147402 37.38421033 25.62499792 35.12419807 25.61914062 32.86376953 C25.60960722 30.68204919 25.57581951 28.50172047 25.5390625 26.3203125 C25.53084473 25.01336426 25.52262695 23.70641602 25.51416016 22.35986328 C24.92251387 18.49365426 24.09552498 17.30780689 21 15 C18.59777376 14.33599835 18.59777376 14.33599835 16.0625 14.4375 C15.22847656 14.41558594 14.39445313 14.39367187 13.53515625 14.37109375 C9.82113973 15.29244454 8.39791658 17.05584082 6 20 C5.24083969 23.54762439 5.24083969 23.54762439 5.328125 27.453125 C5.31537537 28.15395203 5.30262573 28.85477905 5.28948975 29.57684326 C5.25332065 31.80164586 5.25048162 34.02492985 5.25 36.25 C5.22839935 38.48878767 5.1999973 40.72734646 5.16766357 42.96600342 C5.14179593 44.98665792 5.13347028 47.00751413 5.12597656 49.02832031 C5 52 5 52 4 53 C1.83519203 53.0989294 -0.33293785 53.129711 -2.5 53.125 C-3.6859375 53.12757813 -4.871875 53.13015625 -6.09375 53.1328125 C-9 53 -9 53 -10 52 C-10.10887475 50.44567216 -10.14904333 48.88645854 -10.16113281 47.32836914 C-10.17074036 46.33386246 -10.1803479 45.33935577 -10.19024658 44.31471252 C-10.19449646 43.23245895 -10.19874634 42.15020538 -10.203125 41.03515625 C-10.20882507 39.9315123 -10.21452515 38.82786835 -10.22039795 37.69078064 C-10.22986397 35.35123661 -10.23638826 33.01167916 -10.24023438 30.67211914 C-10.24994912 27.08130825 -10.28096177 23.49106723 -10.3125 19.90039062 C-10.31902865 17.63281592 -10.32427966 15.3652371 -10.328125 13.09765625 C-10.3404718 12.01742691 -10.3528186 10.93719757 -10.36553955 9.82423401 C-10.36253845 8.82657516 -10.35953735 7.82891632 -10.35644531 6.80102539 C-10.36009094 5.92023819 -10.36373657 5.03945099 -10.36749268 4.13197327 C-10.24622009 3.42842209 -10.12494751 2.72487091 -10 2 C-6.30594568 -0.46270288 -4.36722928 -0.22985417 0 0 Z " fill="#0D2229" transform="translate(833,567)"/>
<path d="M0 0 C1.859375 1.453125 1.859375 1.453125 3 3 C2.75896128 6.77627333 1.88638485 9.73026626 0 13 C-3.08337813 12.55951741 -5.83676957 12.0630663 -8.75 10.9375 C-13.19544564 9.65515991 -17.40571562 9.83656696 -22 10 C-22.33 11.65 -22.66 13.3 -23 15 C-18.63905437 16.51421723 -14.31652776 17.9720014 -9.8125 19 C-4.19007069 20.47473556 0.42100699 22.32331002 4.08203125 27.0625 C6.03974886 31.19453376 5.70520387 35.57764673 5 40 C2.32434083 45.66004825 -1.68830847 48.37340946 -7.2109375 51.0859375 C-10.72059554 52.23616156 -14.03105989 52.38321186 -17.6875 52.375 C-18.39358398 52.37411377 -19.09966797 52.37322754 -19.82714844 52.37231445 C-27.70605381 52.19504808 -33.80861851 49.86664896 -40 45 C-39.49701212 40.59885603 -37.91227269 38.28804981 -35 35 C-32.33503105 35.53299379 -30.39079449 36.31081914 -27.9375 37.5625 C-22.40918466 40.02086149 -15.67488928 39.89162976 -10 38 C-10 36.68 -10 35.36 -10 34 C-14.30609909 31.47881245 -19.15746503 30.70480802 -23.98046875 29.67578125 C-29.59680932 28.374821 -33.97374408 26.29642337 -37.875 21.875 C-39.56567531 17.55438533 -39.65471572 13.57565366 -39 9 C-36.13894339 3.16784615 -31.78206387 -0.87647421 -25.75 -3.3125 C-16.47428306 -5.01304811 -8.64524709 -3.93444274 0 0 Z " fill="#0F2229" transform="translate(987,570)"/>
<path d="M0 0 C1.16402344 0.02320313 1.16402344 0.02320313 2.3515625 0.046875 C4.375 0.25 4.375 0.25 6.375 1.25 C6.375 6.53 6.375 11.81 6.375 17.25 C10.995 17.25 15.615 17.25 20.375 17.25 C20.47265625 26.52734375 20.47265625 26.52734375 20.375 29.25 C19.375 30.25 19.375 30.25 16.43359375 30.34765625 C15.23863281 30.33605469 14.04367187 30.32445312 12.8125 30.3125 C11.01619141 30.29896484 11.01619141 30.29896484 9.18359375 30.28515625 C8.25675781 30.27355469 7.32992187 30.26195312 6.375 30.25 C6.4847568 34.02143982 6.61541479 37.79187097 6.75 41.5625 C6.7809375 42.63435547 6.811875 43.70621094 6.84375 44.81054688 C6.88242187 45.83857422 6.92109375 46.86660156 6.9609375 47.92578125 C7.00806885 49.3475769 7.00806885 49.3475769 7.05615234 50.7980957 C7.2239051 53.5030269 7.2239051 53.5030269 9.375 56.25 C13.09140139 56.52028374 15.832201 56.430933 19.375 55.25 C22.80357143 63.67857143 22.80357143 63.67857143 22.375 68.25 C15.73617897 71.31407124 9.66961503 72.30747439 2.375 71.25 C-2.1955506 69.407154 -6.21591266 66.64304162 -8.625 62.25 C-9.77452421 58.73380831 -9.73938814 55.41539033 -9.72265625 51.734375 C-9.71943359 50.48398437 -9.71621094 49.23359375 -9.71289062 47.9453125 C-9.70451172 46.64335938 -9.69613281 45.34140625 -9.6875 44 C-9.68298828 42.68257812 -9.67847656 41.36515625 -9.67382812 40.0078125 C-9.66204316 36.75516259 -9.64559011 33.50260416 -9.625 30.25 C-12.925 30.25 -16.225 30.25 -19.625 30.25 C-19.625 25.96 -19.625 21.67 -19.625 17.25 C-16.325 16.92 -13.025 16.59 -9.625 16.25 C-9.59921875 15.34636719 -9.5734375 14.44273437 -9.546875 13.51171875 C-9.49015625 12.33222656 -9.4334375 11.15273438 -9.375 9.9375 C-9.30539062 8.17986328 -9.30539062 8.17986328 -9.234375 6.38671875 C-8.625 3.25 -8.625 3.25 -6.8671875 1.34765625 C-4.35235013 0.11652506 -2.78346057 -0.09309233 0 0 Z " fill="#39997B" transform="translate(524.625,550.75)"/>
<path d="M0 0 C4.10855842 1.8381258 5.72815564 3.73908292 7.39607239 7.91386414 C7.63275131 8.55459366 7.86943024 9.19532318 8.11328125 9.85546875 C8.37255905 10.51710526 8.63183685 11.17874176 8.89897156 11.86042786 C9.71913291 13.96377867 10.51598796 16.07509521 11.3125 18.1875 C11.86632089 19.6197284 12.42164363 21.05137703 12.97851562 22.48242188 C14.33649449 25.98180606 15.67364928 29.48851261 17 33 C18.97236638 30.04145043 20.00918955 27.49335897 21.20703125 24.16015625 C21.62919922 23.01482422 22.05136719 21.86949219 22.48632812 20.68945312 C23.36780712 18.27869245 24.24026978 15.86461518 25.10351562 13.44726562 C25.52955078 12.30064453 25.95558594 11.15402344 26.39453125 9.97265625 C26.77456299 8.92343994 27.15459473 7.87422363 27.54614258 6.79321289 C29.23368153 3.55104107 30.96847199 2.00363891 34 0 C36.3515625 -0.2421875 36.3515625 -0.2421875 38.625 0.125 C39.38039063 0.23070312 40.13578125 0.33640625 40.9140625 0.4453125 C43 1 43 1 46 3 C43.99051328 9.34799741 41.64244888 15.4741863 39.0234375 21.59375 C38.65272125 22.4664856 38.282005 23.33922119 37.90005493 24.23840332 C37.12352954 26.06427463 36.34530059 27.88942231 35.56542969 29.71386719 C34.36719469 32.51826788 33.17541913 35.32535134 31.984375 38.1328125 C31.22694026 39.91161924 30.46914106 41.69027083 29.7109375 43.46875 C29.3536557 44.3103064 28.9963739 45.15186279 28.62826538 46.0189209 C26.11547307 51.88452693 26.11547307 51.88452693 25 53 C22.30345146 53.07319621 19.63308542 53.09242537 16.9375 53.0625 C15.79958008 53.05573242 15.79958008 53.05573242 14.63867188 53.04882812 C12.75908129 53.0370068 10.87953101 53.01907078 9 53 C4.99544969 45.37431377 1.57336291 37.69145459 -1.55859375 29.6796875 C-2.87790829 26.31168129 -4.23562065 22.96460908 -5.625 19.625 C-6.02074219 18.66851563 -6.41648437 17.71203125 -6.82421875 16.7265625 C-7.59802937 14.93214451 -8.41252409 13.15464294 -9.26953125 11.3984375 C-9.65496094 10.60695313 -10.04039062 9.81546875 -10.4375 9 C-10.78683594 8.319375 -11.13617187 7.63875 -11.49609375 6.9375 C-12 5 -12 5 -11.22265625 2.8125 C-8.64696938 -1.00577063 -4.19525583 -0.63495764 0 0 Z " fill="#0D2229" transform="translate(744,567)"/>
<path d="M0 0 C0.66 -0.00773438 1.32 -0.01546875 2 -0.0234375 C4.68871748 0.51220544 5.99942187 1.50873415 8 3.375 C8.48774719 5.58926392 8.48774719 5.58926392 8.4699707 8.19775391 C8.47435905 9.66409775 8.47435905 9.66409775 8.47883606 11.1600647 C8.46132797 12.21325897 8.44381989 13.26645325 8.42578125 14.3515625 C8.42249313 15.43255219 8.41920502 16.51354187 8.41581726 17.62728882 C8.40539093 19.91206887 8.3854319 22.19682227 8.35668945 24.48144531 C8.3125881 27.99298512 8.29525336 31.50384249 8.28320312 35.015625 C8.26978092 37.23178077 8.25485846 39.44792808 8.23828125 41.6640625 C8.23089432 42.72130524 8.22350739 43.77854797 8.21589661 44.86782837 C8.20306137 45.83908661 8.19022614 46.81034485 8.17700195 47.81103516 C8.16715775 48.67024567 8.15731354 49.52945618 8.14717102 50.41470337 C8 52.375 8 52.375 7 53.375 C4.85692104 53.50037741 2.70921114 53.55074364 0.5625 53.5625 C-0.61183594 53.57667969 -1.78617188 53.59085938 -2.99609375 53.60546875 C-6 53.375 -6 53.375 -8 51.375 C-8.26742554 49.33241272 -8.26742554 49.33241272 -8.29052734 46.78930664 C-8.30328705 45.83814468 -8.31604675 44.88698273 -8.32919312 43.90699768 C-8.33141876 42.87679001 -8.33364441 41.84658234 -8.3359375 40.78515625 C-8.3459227 39.20195839 -8.3459227 39.20195839 -8.35610962 37.58677673 C-8.36624792 35.3515701 -8.37092628 33.11633312 -8.37060547 30.88110352 C-8.37497801 27.45473544 -8.41128464 24.02965554 -8.44921875 20.60351562 C-8.45508667 18.43490025 -8.45905623 16.26627874 -8.4609375 14.09765625 C-8.47530853 13.06947281 -8.48967957 12.04128937 -8.50448608 10.98194885 C-8.49833282 10.02763474 -8.49217957 9.07332062 -8.48583984 8.09008789 C-8.48868988 7.25006729 -8.49153992 6.41004669 -8.49447632 5.54457092 C-8 3.375 -8 3.375 -6.09463501 1.60520935 C-3.83225686 0.27648204 -2.59760982 -0.03044074 0 0 Z " fill="#11252C" transform="translate(803,566.625)"/>
<path d="M0 0 C3.85544798 1.99657127 5.59805092 3.39707638 8 7 C8.78110284 12.893776 8.41859592 17.99419883 5 23 C1.05508455 26.64882908 -2.20308081 26.44343095 -7.37109375 26.28515625 C-11.84012947 25.800402 -13.91614823 24.23334857 -16.8125 20.9375 C-18.56775399 16.59555592 -18.6723358 12.61769091 -18 8 C-13.99360633 -0.01278733 -8.42653415 -1.10315826 0 0 Z " fill="#F3FCF9" transform="translate(585,581)"/>
<path d="M0 0 C3.85544798 1.99657127 5.59805092 3.39707638 8 7 C8.59992545 11.16052196 8.43783544 14.9054114 6.875 18.8125 C4.08422322 22.06840624 1.36748974 24.53217269 -2.95703125 25.38671875 C-8.03525208 25.6683027 -11.07197914 24.36687502 -15 21 C-17.73053943 16.58985041 -17.80099226 12.03594145 -17 7 C-13.08989186 -0.25332327 -7.58493067 -0.86086636 0 0 Z " fill="#F5F9F8" transform="translate(916,581)"/>
<path d="M0 0 C1.32 0 2.64 0 4 0 C2.77759304 2.54668117 1.44308541 4.93979337 0 7.375 C-1.79675784 10.49114829 -2.92474016 13.55916851 -4 17 C-4.98511802 19.3396553 -5.98470459 21.67328135 -7 24 C-8.92862161 28.58047633 -10.45334281 33.28048605 -12 38 C-12.33 38.99 -12.66 39.98 -13 41 C-13.66 41 -14.32 41 -15 41 C-18.78723639 48.14669354 -18.78723639 48.14669354 -20 56 C-20.53625 56.86625 -21.0725 57.7325 -21.625 58.625 C-23.56273255 63.38125263 -22.68635382 67.22462424 -21 72 C-18.40294034 75.95707976 -15.30652542 78.98273283 -11 81 C-5.269806 82.1291401 1.40377589 82.91090579 7 81 C11.41236506 77.51115321 12.96037682 74.05049551 15 69 C15.66 68.67 16.32 68.34 17 68 C17.47511042 66.37104999 17.94291574 64.73956722 18.37109375 63.09765625 C20.15562078 57.14553815 23.17403852 51.51062489 26 46 C26.66 46 27.32 46 28 46 C25.87394376 52.73147835 23.37040331 59.24821715 20.625 65.75 C20.25117188 66.66910156 19.87734375 67.58820313 19.4921875 68.53515625 C16.41117867 75.82617371 12.68551866 80.88194315 5.37109375 84.26953125 C-0.74193181 86.15278624 -7.49889937 86.03784338 -13.375 83.4375 C-19.07028446 80.09152038 -22.9391132 75.24735192 -25 69 C-26.17829552 61.60697765 -25.14387737 55.41604308 -21.984375 48.6875 C-21.67397781 48.00310349 -21.36358063 47.31870697 -21.04377747 46.61357117 C-20.03916034 44.4043367 -19.0195202 42.20239027 -18 40 C-17.31770569 38.50291696 -16.63664004 37.00527337 -15.95678711 35.50708008 C-13.8795847 30.93642395 -11.78503552 26.37385348 -9.6875 21.8125 C-8.61303827 19.47527379 -7.53902454 17.13784743 -6.46650696 14.79972839 C-5.80765246 13.36341986 -5.14771783 11.9276061 -4.48649597 10.49238586 C-2.89721587 7.02793865 -1.37624988 3.55477677 0 0 Z " fill="#477C8A" transform="translate(132,572)"/>
<path d="M0 0 C2.66602517 2.33354276 3.79637854 4.48383811 5.04296875 7.78125 C5.39423828 8.70550781 5.74550781 9.62976563 6.10742188 10.58203125 C6.46384766 11.54496094 6.82027344 12.50789062 7.1875 13.5 C7.73954102 14.94439453 7.73954102 14.94439453 8.30273438 16.41796875 C11 23.59399641 11 23.59399641 11 27 C4.07 27 -2.86 27 -10 27 C-6.625 16.875 -6.625 16.875 -5.17578125 13.18359375 C-4.86962891 12.40048828 -4.56347656 11.61738281 -4.24804688 10.81054688 C-3.93931641 10.02744141 -3.63058594 9.24433594 -3.3125 8.4375 C-2.83200195 7.21063477 -2.83200195 7.21063477 -2.34179688 5.95898438 C-1.56321746 3.97186378 -0.78190155 1.98581573 0 0 Z " fill="#EEFBF8" transform="translate(350,565)"/>
<path d="M0 0 C3.55247432 0.87379409 4.94828114 2.4927342 6.9375 5.4765625 C7.61389058 8.49936996 7.39308841 10.28744363 6.9375 13.4765625 C5.06734906 15.90775873 3.65611655 17.11725423 0.9375 18.4765625 C-2.93464182 18.90680048 -4.58746371 18.79325336 -7.875 16.6015625 C-10.65899199 13.89711313 -10.99714155 13.05389546 -11.4375 9.1640625 C-11.0625 5.4765625 -11.0625 5.4765625 -9.0625 2.5390625 C-5.72726514 0.24608853 -3.96242945 -0.28517485 0 0 Z " fill="#0F2127" transform="translate(805.0625,541.5234375)"/>
<path d="M0 0 C1.26328125 0.02707031 2.5265625 0.05414062 3.828125 0.08203125 C4.79234375 0.11683594 5.7565625 0.15164063 6.75 0.1875 C7.0546875 5.8359375 7.0546875 5.8359375 4.3125 9 C3.466875 9.721875 2.62125 10.44375 1.75 11.1875 C1.42 11.5175 1.09 11.8475 0.75 12.1875 C-6.38373037 12.772232 -6.38373037 12.772232 -9.75 10.5 C-11.55056348 7.7241313 -11.91499679 6.42935935 -11.25 3.1875 C-7.83340181 -0.36440901 -4.75015174 -0.13194866 0 0 Z " fill="#ECF2F3" transform="translate(706.25,598.8125)"/>
<path d="M0 0 C5.31809458 7.97714187 6.08038721 14.50074642 5 24 C2.75142061 30.34214701 -2.28348979 35.18939246 -8.28515625 38.11328125 C-14.32766792 40.08687859 -21.32480581 39.79265013 -27.375 38 C-32.94700791 33.75466064 -37.42691396 28.99149351 -39 22 C-38.34 21.67 -37.68 21.34 -37 21 C-37 21.66 -37 22.32 -37 23 C-36.34 23 -35.68 23 -35 23 C-34.67 25.31 -34.34 27.62 -34 30 C-33.01 30 -32.02 30 -31 30 C-29.1409877 31.57301041 -28.09190042 32.81619917 -27 35 C-18.79687925 36.98282061 -11.82012627 35.81784336 -4.625 31.625 C-1.65172872 29.78891614 -0.35901511 28.22594495 1 25 C1.66 25 2.32 25 3 25 C3.5718582 16.85600562 3.5718582 16.85600562 1.5 9.125 C-0.10770709 5.77561024 -0.26794802 3.66195623 0 0 Z " fill="#66B195" transform="translate(282,618)"/>
<path d="M0 0 C0.76183594 -0.01675781 1.52367187 -0.03351562 2.30859375 -0.05078125 C5.27345692 0.42709098 6.4512138 1.1609858 8.5625 3.3125 C9.01660156 6.4987793 9.01660156 6.4987793 8.953125 10.38671875 C8.94746521 11.0705513 8.94180542 11.75438385 8.93597412 12.4589386 C8.91360816 14.64000899 8.86341765 16.81942753 8.8125 19 C8.792435 20.47979395 8.77418422 21.9596137 8.7578125 23.43945312 C8.71374474 27.0643376 8.64471822 30.68825756 8.5625 34.3125 C7.9025 34.3125 7.2425 34.3125 6.5625 34.3125 C6.5625 24.0825 6.5625 13.8525 6.5625 3.3125 C3.2625 2.9825 -0.0375 2.6525 -3.4375 2.3125 C-5.13238141 7.44699368 -5.71187515 12.01409952 -5.6328125 17.43359375 C-5.6299826 18.17835464 -5.62715271 18.92311554 -5.62423706 19.69044495 C-5.61313917 22.04380101 -5.5880551 24.39676109 -5.5625 26.75 C-5.55245672 28.35611425 -5.54333324 29.96223454 -5.53515625 31.56835938 C-5.51323407 35.48322296 -5.47877761 39.3977946 -5.4375 43.3125 C-8.0075832 39.45737521 -7.7433156 36.24848344 -7.73828125 31.77734375 C-7.74256638 30.94288223 -7.7468515 30.10842072 -7.75126648 29.24867249 C-7.75700633 27.48602201 -7.75751257 25.72334784 -7.75317383 23.96069336 C-7.75000772 21.25659124 -7.77349764 18.55357668 -7.79882812 15.84960938 C-7.80110046 14.13802222 -7.80180492 12.42643211 -7.80078125 10.71484375 C-7.809991 9.90337387 -7.81920074 9.09190399 -7.82868958 8.25584412 C-7.80981445 5.98022461 -7.80981445 5.98022461 -7.4375 2.3125 C-4.35229997 0.25569998 -3.52476496 0.01783186 0 0 Z " fill="#5D9E87" transform="translate(453.4375,566.6875)"/>
<path d="M0 0 C0.66 0 1.32 0 2 0 C0.74176374 3.95933732 -0.69835631 7.69205806 -2.4765625 11.4453125 C-2.97494629 12.50540527 -3.47333008 13.56549805 -3.98681641 14.65771484 C-4.79771729 16.374021 -4.79771729 16.374021 -5.625 18.125 C-11.84248847 31.36311987 -17.80245674 44.70950659 -23.70556641 58.09033203 C-24.03588867 58.83788757 -24.36621094 59.58544312 -24.70654297 60.35565186 C-25.32333712 61.75204897 -25.9388361 63.14901924 -26.55273438 64.54669189 C-28.26383371 68.42153028 -30.07580801 72.22654675 -32 76 C-32.33 76 -32.66 76 -33 76 C-33.54033094 71.13702158 -31.6161525 67.77274446 -29.375 63.625 C-26.29752869 57.7247073 -23.67088181 51.84953379 -21.28393555 45.63598633 C-19.22542196 40.37351253 -16.76268924 35.38308322 -14.18505859 30.35839844 C-10.12458396 22.39220762 -6.53607801 14.21394294 -2.92626953 6.03613281 C-1.9989024 3.99758725 -1.01403818 1.99665072 0 0 Z " fill="#DEF5F7" transform="translate(146,538)"/>
<path d="M0 0 C2.475 0.99 2.475 0.99 5 2 C5 18.5 5 35 5 52 C4.67 52 4.34 52 4 52 C4 35.83 4 19.66 4 3 C-2.93637415 2.61765758 -2.93637415 2.61765758 -8 6 C-9.01802563 11.961771 -9.27974467 17.96479614 -9.5625 24 C-9.60568359 24.87011719 -9.64886719 25.74023438 -9.69335938 26.63671875 C-9.79824218 28.75768219 -9.89950075 30.87882433 -10 33 C-10.33 33 -10.66 33 -11 33 C-11.0989211 28.78253675 -11.17149012 24.56568879 -11.21972656 20.34741211 C-11.23983525 18.91272214 -11.26712673 17.47811407 -11.30175781 16.04370117 C-11.3503146 13.98075161 -11.37297406 11.91888569 -11.390625 9.85546875 C-11.41157227 8.61434326 -11.43251953 7.37321777 -11.45410156 6.09448242 C-11 3 -11 3 -9.19042969 1.09106445 C-5.99901621 -0.49859525 -3.51892556 -0.30867768 0 0 Z " fill="#64A38D" transform="translate(493,567)"/>
<path d="M0 0 C1.32 0.33 2.64 0.66 4 1 C5.52164099 3.89111788 6 5.71823412 6 9 C6.66 9 7.32 9 8 9 C8.144375 8.071875 8.28875 7.14375 8.4375 6.1875 C9 3 9 3 10 0 C11.32 0 12.64 0 14 0 C14 4.62 14 9.24 14 14 C13.01 14 12.02 14 11 14 C10.67 12.35 10.34 10.7 10 9 C9.34 10.32 8.68 11.64 8 13 C7.01 12.67 6.02 12.34 5 12 C3.8125 9.4375 3.8125 9.4375 3 7 C2.67 9.31 2.34 11.62 2 14 C1.34 14 0.68 14 0 14 C0 9.38 0 4.76 0 0 Z " fill="#354141" transform="translate(1002,547)"/>
<path d="M0 0 C0.99 0.495 0.99 0.495 2 1 C2 10.57 2 20.14 2 30 C2.66 30 3.32 30 4 30 C4 30.99 4 31.98 4 33 C4.66 33 5.32 33 6 33 C6.33 33.99 6.66 34.98 7 36 C10.3 36.66 13.6 37.32 17 38 C17 38.66 17 39.32 17 40 C19.31 40 21.62 40 24 40 C24 40.33 24 40.66 24 41 C16.89048876 41.53321334 11.44631446 41.70255007 5.5546875 37.36328125 C2.3159482 34.52328121 0.80742154 32.19805401 0 28 C-0.08147598 25.82940968 -0.10752942 23.65647149 -0.09765625 21.484375 C-0.09443359 20.23398437 -0.09121094 18.98359375 -0.08789062 17.6953125 C-0.07951172 16.39335938 -0.07113281 15.09140625 -0.0625 13.75 C-0.05798828 12.43257812 -0.05347656 11.11515625 -0.04882812 9.7578125 C-0.03704316 6.50516259 -0.02059011 3.25260416 0 0 Z " fill="#4D947F" transform="translate(515,581)"/>
<path d="M0 0 C1.16402344 0.02320313 1.16402344 0.02320313 2.3515625 0.046875 C4.375 0.25 4.375 0.25 6.375 1.25 C6.375 6.53 6.375 11.81 6.375 17.25 C6.045 17.25 5.715 17.25 5.375 17.25 C5.31441406 16.40695312 5.25382813 15.56390625 5.19140625 14.6953125 C5.06572266 13.05175781 5.06572266 13.05175781 4.9375 11.375 C4.85628906 10.28445313 4.77507813 9.19390625 4.69140625 8.0703125 C4.54498297 5.30271029 4.54498297 5.30271029 3.375 3.25 C0.00063814 2.91619186 0.00063814 2.91619186 -3.625 3.25 C-7.22273341 6.83123005 -7.01372536 10.18339297 -7.12109375 15.0078125 C-7.625 17.25 -7.625 17.25 -9.45703125 18.515625 C-12.15078733 19.42810454 -14.81115586 19.86629398 -17.625 20.25 C-17.955 23.55 -18.285 26.85 -18.625 30.25 C-18.955 30.25 -19.285 30.25 -19.625 30.25 C-19.625 25.96 -19.625 21.67 -19.625 17.25 C-16.325 16.92 -13.025 16.59 -9.625 16.25 C-9.59921875 15.34636719 -9.5734375 14.44273437 -9.546875 13.51171875 C-9.49015625 12.33222656 -9.4334375 11.15273438 -9.375 9.9375 C-9.30539062 8.17986328 -9.30539062 8.17986328 -9.234375 6.38671875 C-8.625 3.25 -8.625 3.25 -6.8671875 1.34765625 C-4.35235013 0.11652506 -2.78346057 -0.09309233 0 0 Z " fill="#4E967E" transform="translate(524.625,550.75)"/>
<path d="M0 0 C0.66 0 1.32 0 2 0 C2.24645264 0.62455078 2.49290527 1.24910156 2.74682617 1.89257812 C3.88564088 4.76499571 5.03646962 7.63245679 6.1875 10.5 C6.57486328 11.48226562 6.96222656 12.46453125 7.36132812 13.4765625 C9.50657841 18.79536485 11.78115579 23.63466843 15.04492188 28.36132812 C16.35900814 30.61596692 16.3977324 32.45451267 16 35 C16.66 35 17.32 35 18 35 C19.03479213 37.41151557 20.0529372 39.82794469 21.0625 42.25 C21.35705078 42.93191406 21.65160156 43.61382813 21.95507812 44.31640625 C23.48321625 48.01989395 24.24129373 50.1840347 23 54 C22.55197021 52.98800537 22.10394043 51.97601074 21.64233398 50.93334961 C19.94591226 47.10260793 18.24751539 43.27274445 16.54858398 39.44311523 C15.81987253 37.79979164 15.09166487 36.15624452 14.36401367 34.51245117 C13.30526928 32.12096021 12.24486768 29.73021318 11.18359375 27.33984375 C10.83525482 26.5543515 10.48691589 25.76885925 10.12802124 24.95956421 C8.42901286 21.14468101 6.70344156 17.34652045 4.91064453 13.57470703 C4.42012352 12.54151085 4.42012352 12.54151085 3.91969299 11.48744202 C3.03047033 9.62499585 2.13283343 7.76657367 1.23461914 5.90844727 C0 3 0 3 0 0 Z " fill="#E1FBF3" transform="translate(236,514)"/>
<path d="M0 0 C3 1 3 1 4.02954102 2.93579102 C4.33045654 3.76264404 4.63137207 4.58949707 4.94140625 5.44140625 C5.28059082 6.34777832 5.61977539 7.25415039 5.96923828 8.18798828 C6.30938965 9.11595215 6.64954102 10.04391602 7 11 C7.64975702 12.65699282 8.30456962 14.31201361 8.96484375 15.96484375 C9.28759277 16.77928955 9.6103418 17.59373535 9.94287109 18.43286133 C12.46598446 24.78647449 14.98244255 31.11538878 17.875 37.3125 C20.63092011 43.25118306 22.32528394 48.3316793 22 55 C21.67 55 21.34 55 21 55 C20.6596875 53.73414063 20.319375 52.46828125 19.96875 51.1640625 C17.42277189 42.68045704 13.86757522 34.5568186 10.5 26.375 C9.47984673 23.88580667 8.46102593 21.3960754 7.4432373 18.90591431 C6.81377519 17.36697287 6.1827797 15.82865732 5.54992676 14.29110718 C3.60858529 9.55886856 1.77534795 4.79708744 0 0 Z " fill="#E1FAF4" transform="translate(367,563)"/>
<path d="M0 0 C0.66 0 1.32 0 2 0 C-0.36482701 7.61103027 -3.4358921 14.79148517 -6.6875 22.0625 C-7.19861328 23.21427734 -7.70972656 24.36605469 -8.23632812 25.55273438 C-9.48721306 28.37014812 -10.74184323 31.18582798 -12 34 C-12.66 34 -13.32 34 -14 34 C-14.75 32.375 -14.75 32.375 -15 30 C-13.1875 26.75 -13.1875 26.75 -11 24 C-10.34 24 -9.68 24 -9 24 C-8.91878906 23.02933594 -8.83757812 22.05867187 -8.75390625 21.05859375 C-8.07485372 16.30522605 -6.05408282 12.32856588 -3.9375 8.0625 C-3.56044922 7.28326172 -3.18339844 6.50402344 -2.79492188 5.70117188 C-1.87184945 3.79660471 -0.93710938 1.89769987 0 0 Z " fill="#579490" transform="translate(194,539)"/>
<path d="M0 0 C1.39120471 0.00015906 2.78241534 0.00585033 4.17358398 0.01586914 C4.90463852 0.01728409 5.63569305 0.01869904 6.38890076 0.02015686 C8.73253406 0.02577131 11.07607313 0.03832617 13.41967773 0.05102539 C15.00496282 0.05603853 16.59024939 0.06060176 18.17553711 0.06469727 C22.06945383 0.07574542 25.96329979 0.09301967 29.85717773 0.11352539 C29.85717773 0.44352539 29.85717773 0.77352539 29.85717773 1.11352539 C28.87491211 1.13539917 28.87491211 1.13539917 27.87280273 1.15771484 C24.867041 1.23280582 21.86231676 1.3292621 18.85717773 1.42602539 C17.8272168 1.44858398 16.79725586 1.47114258 15.73608398 1.49438477 C9.47823866 1.71360865 4.52573164 2.38129558 -1.14282227 5.11352539 C-2.96901314 7.62717295 -2.96901314 7.62717295 -4.14282227 10.11352539 C-5.13282227 10.44352539 -6.12282227 10.77352539 -7.14282227 11.11352539 C-6.66756346 9.46655935 -6.18750336 7.82097811 -5.70532227 6.17602539 C-5.43848633 5.25950195 -5.17165039 4.34297852 -4.89672852 3.39868164 C-3.76427447 -0.03388634 -3.79008817 0.136906 0 0 Z " fill="#BBDDD5" transform="translate(337.142822265625,605.886474609375)"/>
<path d="M0 0 C0.66 0 1.32 0 2 0 C-0.13232865 6.79209392 -2.70000947 13.33244788 -5.5 19.875 C-5.89058594 20.81085937 -6.28117188 21.74671875 -6.68359375 22.7109375 C-7.06644531 23.608125 -7.44929687 24.5053125 -7.84375 25.4296875 C-8.18599609 26.23647949 -8.52824219 27.04327148 -8.88085938 27.87451172 C-10.01153859 30.02191425 -11.19645382 31.39577276 -13 33 C-14 30 -14 30 -12.6875 26.375 C-11 23 -11 23 -9 22 C-8.52488958 20.37104999 -8.05708426 18.73956722 -7.62890625 17.09765625 C-5.84437922 11.14553815 -2.82596148 5.51062489 0 0 Z " fill="#548B8E" transform="translate(158,618)"/>
<path d="M0 0 C0 0.99 0 1.98 0 3 C-6.29860566 8.64529284 -14.37376043 10.45861714 -22.62109375 10.2578125 C-26.89083563 9.79508185 -31.09113788 8.79556426 -35 7 C-35.66 6.01 -36.32 5.02 -37 4 C-36.41734375 4.2165625 -35.8346875 4.433125 -35.234375 4.65625 C-25.3811951 8.00261298 -15.56854439 8.5106156 -6 4 C-3.87475431 2.77237361 -1.97461209 1.4683013 0 0 Z " fill="#5B9C86" transform="translate(600,612)"/>
<path d="M0 0 C0.33 0 0.66 0 1 0 C1.01981934 0.68102783 1.03963867 1.36205566 1.06005859 2.0637207 C1.15526983 5.14703917 1.26496466 8.22967649 1.375 11.3125 C1.4059375 12.38435547 1.436875 13.45621094 1.46875 14.56054688 C1.50742187 15.58857422 1.54609375 16.61660156 1.5859375 17.67578125 C1.6173584 18.62364502 1.6487793 19.57150879 1.68115234 20.5480957 C1.8489051 23.2530269 1.8489051 23.2530269 4 26 C7.71640139 26.27028374 10.457201 26.180933 14 25 C17.42857143 33.42857143 17.42857143 33.42857143 17 38 C16.01 38.495 16.01 38.495 15 39 C14.67 36.03 14.34 33.06 14 30 C13.15695312 29.90203125 12.31390625 29.8040625 11.4453125 29.703125 C10.34960938 29.55359375 9.25390625 29.4040625 8.125 29.25 C7.03445313 29.11078125 5.94390625 28.9715625 4.8203125 28.828125 C2 28 2 28 0.8359375 26.30078125 C-0.17429311 23.52028673 -0.22676916 21.31630147 -0.1953125 18.359375 C-0.18886719 17.28945313 -0.18242188 16.21953125 -0.17578125 15.1171875 C-0.15902344 14.00601563 -0.14226563 12.89484375 -0.125 11.75 C-0.11597656 10.62335937 -0.10695313 9.49671875 -0.09765625 8.3359375 C-0.07410658 5.55707635 -0.0412168 2.7786461 0 0 Z " fill="#5A9A84" transform="translate(530,581)"/>
<path d="M0 0 C0.33 0 0.66 0 1 0 C1.73270747 5.2393603 -0.70034925 8.26694169 -3.5625 12.375 C-4.24650879 13.37092163 -4.24650879 13.37092163 -4.94433594 14.38696289 C-11.9434703 24.39434588 -11.9434703 24.39434588 -16 27 C-19.4375 27.4375 -19.4375 27.4375 -22 27 C-21.40445313 26.74476563 -20.80890625 26.48953125 -20.1953125 26.2265625 C-17.78516269 24.87996634 -16.57123498 23.53303717 -14.875 21.375 C-13.3671875 19.4609375 -13.3671875 19.4609375 -12 18 C-11.34 18 -10.68 18 -10 18 C-8.9799754 15.97361184 -7.97332505 13.94383673 -7 11.89453125 C-6.67 11.20746094 -6.34 10.52039063 -6 9.8125 C-5.67 9.11769531 -5.34 8.42289063 -5 7.70703125 C-4 6 -4 6 -2 5 C-1.27840576 3.35636866 -0.60648579 1.68949614 0 0 Z " fill="#4D8B83" transform="translate(227,621)"/>
<path d="M0 0 C0.66 0 1.32 0 2 0 C4.76293899 5.39835772 7.27559027 10.82219999 9.5625 16.4375 C9.86551025 17.17669678 10.16852051 17.91589355 10.48071289 18.67749023 C12.5314328 23.72631269 14.39004637 28.7913265 16 34 C16.66 34 17.32 34 18 34 C18.33 36.31 18.66 38.62 19 41 C16.22394811 37.64444793 14.47367067 33.98746471 12.71484375 30.0390625 C12.41308731 29.37087494 12.11133087 28.70268738 11.8004303 28.01425171 C11.16528344 26.6049679 10.53255264 25.194593 9.90209961 23.78320312 C8.9426734 21.63657501 7.97491175 19.49385956 7.00585938 17.3515625 C6.38752182 15.97678683 5.76966735 14.60179377 5.15234375 13.2265625 C4.86584457 12.59199127 4.5793454 11.95742004 4.28416443 11.30361938 C2.63179628 7.59341284 1.22050641 3.87341014 0 0 Z " fill="#E2FAF5" transform="translate(217,473)"/>
<path d="M0 0 C1.21156616 3.99559054 0.51422937 6.09488216 -1 10 C-1.268125 10.78375 -1.53625 11.5675 -1.8125 12.375 C-3.51665926 16.1420889 -5.74962132 19.53853966 -8 23 C-7.34 23.33 -6.68 23.66 -6 24 C-7.28965176 25.37562854 -8.62689293 26.70766393 -10 28 C-10.66 28 -11.32 28 -12 28 C-10.20513796 21.95523473 -7.50677707 16.33824153 -4.875 10.625 C-4.40707031 9.60277344 -3.93914062 8.58054687 -3.45703125 7.52734375 C-2.30741708 5.01696179 -1.15499936 2.50790769 0 0 Z " fill="#4F868E" transform="translate(154,524)"/>
<path d="M0 0 C1.51400391 0.01740234 1.51400391 0.01740234 3.05859375 0.03515625 C4.07050781 0.04417969 5.08242188 0.05320312 6.125 0.0625 C7.29869141 0.07990234 7.29869141 0.07990234 8.49609375 0.09765625 C8.16609375 1.08765625 7.83609375 2.07765625 7.49609375 3.09765625 C6.50609375 3.09765625 5.51609375 3.09765625 4.49609375 3.09765625 C4.49609375 6.72765625 4.49609375 10.35765625 4.49609375 14.09765625 C3.50609375 14.09765625 2.51609375 14.09765625 1.49609375 14.09765625 C1.4703125 13.32679688 1.44453125 12.5559375 1.41796875 11.76171875 C1.36125 10.75882813 1.30453125 9.7559375 1.24609375 8.72265625 C1.1996875 7.72492187 1.15328125 6.7271875 1.10546875 5.69921875 C0.7744849 2.94500855 0.7744849 2.94500855 -1.55078125 1.74609375 C-2.1953125 1.53210938 -2.83984375 1.318125 -3.50390625 1.09765625 C-2.50390625 0.09765625 -2.50390625 0.09765625 0 0 Z " fill="#444E4E" transform="translate(992.50390625,546.90234375)"/>
<path d="M0 0 C2.4375 1 2.4375 1 4 2 C3.49202991 6.3177458 2.80317221 10.03302114 1 14 C-0.45606519 9.47907032 0.72967159 6.48351204 2 2 C-3.354594 2.1971087 -3.354594 2.1971087 -7.875 4.5625 C-8.24625 5.036875 -8.6175 5.51125 -9 6 C-9.66 6 -10.32 6 -11 6 C-10.6875 4.125 -10.6875 4.125 -10 2 C-6.29873141 -0.46751239 -4.37776468 -0.30721156 0 0 Z " fill="#509379" transform="translate(436,567)"/>
<path d="M0 0 C14.93596987 -0.74576271 14.93596987 -0.74576271 21 4 C23.4375 6.25 23.4375 6.25 25 8 C24.01 8.33 23.02 8.66 22 9 C21.649375 8.360625 21.29875 7.72125 20.9375 7.0625 C18.23004159 4.18036686 15.83689942 4.35526846 12 4 C11.67 3.67 11.34 3.34 11 3 C8.71315662 2.7180604 6.42636727 2.55222995 4.12890625 2.37890625 C2 2 2 2 0 0 Z " fill="#5E9B8E" transform="translate(190,463)"/>
<path d="M0 0 C0.99 0 1.98 0 3 0 C3 0.99 3 1.98 3 3 C3.66 3 4.32 3 5 3 C5.33 3.99 5.66 4.98 6 6 C9.3 6.66 12.6 7.32 16 8 C16 8.66 16 9.32 16 10 C18.31 10 20.62 10 23 10 C23 10.33 23 10.66 23 11 C15.89158491 11.53313113 10.4547658 11.69822209 4.55859375 7.37109375 C2.69340044 5.7302846 1.20453413 4.18321812 0 2 C0 1.34 0 0.68 0 0 Z " fill="#569982" transform="translate(516,611)"/>
<path d="M0 0 C0.44730469 0.40992188 0.89460938 0.81984375 1.35546875 1.2421875 C6.98511558 6.25965525 10.95796399 8.35673014 18.57421875 8.203125 C22.47922142 7.87613605 26.21839556 7.00127588 30 6 C29.01171875 7.96484375 29.01171875 7.96484375 27 10 C24.10734817 10.43919845 21.70039732 10.61838682 18.8125 10.5625 C17.66382446 10.54932739 17.66382446 10.54932739 16.49194336 10.53588867 C11.36563717 10.35052144 7.45751498 9.68779137 3.31640625 6.4453125 C1.51615109 4.46877123 0.59389367 2.5982848 0 0 Z " fill="#E0FAF3" transform="translate(448,613)"/>
<path d="M0 0 C3.47031249 3.18377293 4.90776757 6.73936368 6.75 11 C7.07871094 11.72445313 7.40742188 12.44890625 7.74609375 13.1953125 C10.12297985 18.63106045 10.12297985 18.63106045 9 22 C6.29090453 20.64545227 5.77786336 18.7530241 4.6484375 16.046875 C3.96421058 13.88702617 3.73529961 11.9421235 3.5625 9.6875 C3.376875 8.470625 3.19125 7.25375 3 6 C1.07935207 4.4100567 1.07935207 4.4100567 -1 4 C-0.67 2.68 -0.34 1.36 0 0 Z " fill="#65A795" transform="translate(215,471)"/>
<path d="M0 0 C0.33 0 0.66 0 1 0 C1 2.64 1 5.28 1 8 C2.58294782 8.05437607 4.16644256 8.09296271 5.75 8.125 C6.63171875 8.14820313 7.5134375 8.17140625 8.421875 8.1953125 C11.15352576 7.98836926 12.60103355 7.23849081 15 6 C16.32 6 17.64 6 19 6 C19 6.66 19 7.32 19 8 C12.43328099 10.66475554 7.08009042 11.29915875 0 11 C0 7.37 0 3.74 0 0 Z " fill="#579580" transform="translate(388,631)"/>
<path d="M0 0 C1.19109375 -0.00386719 1.19109375 -0.00386719 2.40625 -0.0078125 C4.5 0.125 4.5 0.125 6.5 1.125 C6.5 6.405 6.5 11.685 6.5 17.125 C6.17 17.125 5.84 17.125 5.5 17.125 C5.43941406 16.28195312 5.37882813 15.43890625 5.31640625 14.5703125 C5.23261719 13.47460938 5.14882813 12.37890625 5.0625 11.25 C4.98128906 10.15945313 4.90007813 9.06890625 4.81640625 7.9453125 C4.66998297 5.17771029 4.66998297 5.17771029 3.5 3.125 C-1.04805635 2.94664485 -4.3794254 3.12714565 -8.5 5.125 C-6.4286205 0.53837397 -4.94747213 -0.01606322 0 0 Z " fill="#629E89" transform="translate(524.5,550.875)"/>
<path d="M0 0 C0.45890625 0.40992188 0.9178125 0.81984375 1.390625 1.2421875 C2.00421875 1.78101563 2.6178125 2.31984375 3.25 2.875 C3.85328125 3.40867187 4.4565625 3.94234375 5.078125 4.4921875 C10.71134957 8.91174987 16.08022411 8.32292288 23 8 C26.51526162 7.58601101 26.51526162 7.58601101 29 7 C28.67 7.99 28.34 8.98 28 10 C25.12442297 10.08138426 22.25117738 10.14067851 19.375 10.1875 C18.16263672 10.22520508 18.16263672 10.22520508 16.92578125 10.26367188 C11.83900817 10.32570569 8.40482788 9.83359355 4 7 C0 2.68421053 0 2.68421053 0 0 Z " fill="#DDF9F2" transform="translate(516,613)"/>
<path d="M0 0 C1.32 0.33 2.64 0.66 4 1 C4.66 3.31 5.32 5.62 6 8 C5.34 8.66 4.68 9.32 4 10 C3.67 9.01 3.34 8.02 3 7 C2.67 9.31 2.34 11.62 2 14 C1.34 14 0.68 14 0 14 C0 9.38 0 4.76 0 0 Z " fill="#202B2A" transform="translate(1002,547)"/>
<path d="M0 0 C0.33 0 0.66 0 1 0 C1 4.29 1 8.58 1 13 C-8.27734375 13.09765625 -8.27734375 13.09765625 -11 13 C-12 12 -12 12 -12.0625 8.9375 C-12.041875 7.968125 -12.02125 6.99875 -12 6 C-11.67 7.32 -11.34 8.64 -11 10 C-9.72125 10.20625 -8.4425 10.4125 -7.125 10.625 C-6.40570313 10.74101563 -5.68640625 10.85703125 -4.9453125 10.9765625 C-3.98238281 10.98816406 -3.98238281 10.98816406 -3 11 C-0.81348256 9.24385229 -0.81348256 9.24385229 -0.83984375 7.08984375 C-0.87207031 6.37957031 -0.90429688 5.66929687 -0.9375 4.9375 C-0.958125 3.638125 -0.97875 2.33875 -1 1 C-0.67 0.67 -0.34 0.34 0 0 Z " fill="#489074" transform="translate(496,607)"/>
<path d="M0 0 C1.8359375 0.6015625 1.8359375 0.6015625 4 2 C5.4140625 4.8984375 5.4140625 4.8984375 6.625 8.375 C8.16901498 12.88132943 8.16901498 12.88132943 10.2109375 17.1640625 C11.21665552 19.50409947 10.69606382 20.61110898 10 23 C8.33030901 19.35554417 6.66475483 15.70921295 5 12.0625 C4.28457031 10.50112305 4.28457031 10.50112305 3.5546875 8.90820312 C2.87792969 7.42416992 2.87792969 7.42416992 2.1875 5.91015625 C1.76855469 4.99371338 1.34960938 4.07727051 0.91796875 3.13305664 C0 1 0 1 0 0 Z " fill="#DEFAF2" transform="translate(260,569)"/>
<path d="M0 0 C4.62 0 9.24 0 14 0 C14.09765625 9.27734375 14.09765625 9.27734375 14 12 C13 13 13 13 10.49609375 13.09765625 C8.98208984 13.08025391 8.98208984 13.08025391 7.4375 13.0625 C6.42558594 13.05347656 5.41367187 13.04445313 4.37109375 13.03515625 C3.58863281 13.02355469 2.80617188 13.01195312 2 13 C2 12.67 2 12.34 2 12 C6.455 11.505 6.455 11.505 11 11 C11.66 7.7 12.32 4.4 13 1 C8.71 1 4.42 1 0 1 C0 0.67 0 0.34 0 0 Z " fill="#50947F" transform="translate(531,568)"/>
<path d="M0 0 C2 3 2 3 3 8 C-3.93 8 -10.86 8 -18 8 C-17.34 6.68 -16.68 5.36 -16 4 C-15.67 4.66 -15.34 5.32 -15 6 C-10.38 6 -5.76 6 -1 6 C-0.67 4.02 -0.34 2.04 0 0 Z " fill="#D3F3EC" transform="translate(358,584)"/>
<path d="M0 0 C3.34869542 5.02304312 5.79064982 10.39164953 8 16 C8.33 16.33 8.66 16.66 9 17 C9.04063832 18.66617115 9.042721 20.33388095 9 22 C5.89302252 18.3368352 4.14633863 14.23735924 2.25 9.875 C1.92128906 9.14667969 1.59257812 8.41835938 1.25390625 7.66796875 C0.43804933 5.80561181 -0.28838194 3.9046248 -1 2 C-0.67 1.34 -0.34 0.68 0 0 Z " fill="#64AA95" transform="translate(219,584)"/>
<path d="M0 0 C0 0.99 0 1.98 0 3 C-1.72526042 3.9765625 -3.45052083 4.953125 -5.17578125 5.9296875 C-6.81982289 6.89428581 -8.41400588 7.94267059 -10 9 C-10.99 9 -11.98 9 -13 9 C-11.73809862 5.21429586 -10.45144185 4.78168429 -7.0625 2.8125 C-6.16660156 2.28269531 -5.27070313 1.75289062 -4.34765625 1.20703125 C-2 0 -2 0 0 0 Z " fill="#508F87" transform="translate(225,611)"/>
<path d="M0 0 C1.32829008 3.98487023 0.27657189 5.57281656 -1.25 9.4375 C-1.68828125 10.57058594 -2.1265625 11.70367187 -2.578125 12.87109375 C-3.82208902 15.60849809 -5.08329644 17.70559309 -7 20 C-8.37286689 15.88139932 -7.05344106 14.41236903 -5.1875 10.5625 C-4.64480469 9.42941406 -4.10210937 8.29632813 -3.54296875 7.12890625 C-2.36926302 4.74880932 -1.19377583 2.37008177 0 0 Z " fill="#5F9595" transform="translate(177,473)"/>
<path d="M0 0 C0.99 0 1.98 0 3 0 C2.02903542 2.81579728 1.0441061 3.96750077 -1.375 5.75 C-6.5828052 7.5457949 -11.54365313 7.23838409 -17 7 C-17 6.67 -17 6.34 -17 6 C-16.33613281 5.95101562 -15.67226563 5.90203125 -14.98828125 5.8515625 C-8.24568094 5.37882124 -8.24568094 5.37882124 -2 3 C-1.34 2.01 -0.68 1.02 0 0 Z " fill="#4A9177" transform="translate(478,614)"/>
<path d="M0 0 C0 0.33 0 0.66 0 1 C-1.670625 1.4021875 -1.670625 1.4021875 -3.375 1.8125 C-7.21840951 2.65809019 -7.21840951 2.65809019 -9 6 C-8.68493373 9.14221967 -8.68493373 9.14221967 -8 12 C-10.50298434 9.06171403 -11.46930939 6.82097239 -12 3 C-8.2391768 -0.7608232 -5.0273023 -0.25136512 0 0 Z " fill="#53957F" transform="translate(395,567)"/>
<path d="M0 0 C0 0.99 0 1.98 0 3 C-4.4337826 6.98464618 -9.15260862 8.63453804 -15 9 C-15 8.34 -15 7.68 -15 7 C-14.41992188 6.82984375 -13.83984375 6.6596875 -13.2421875 6.484375 C-8.19643129 4.91902489 -4.24044994 3.15315509 0 0 Z " fill="#52957E" transform="translate(600,612)"/>
<path d="M0 0 C0.33 0.66 0.66 1.32 1 2 C1.66 2 2.32 2 3 2 C3.2475 2.721875 3.495 3.44375 3.75 4.1875 C4.89501432 7.12299667 4.89501432 7.12299667 7.1875 9.5625 C8.0846875 10.7690625 8.0846875 10.7690625 9 12 C8.61328125 14.15234375 8.61328125 14.15234375 8 16 C6.4693001 13.71439353 4.95034956 11.42237333 3.4375 9.125 C2.99986328 8.47402344 2.56222656 7.82304688 2.11132812 7.15234375 C1.01245164 5.47374503 -0.0007818 3.73976613 -1 2 C-0.67 1.34 -0.34 0.68 0 0 Z " fill="#5F9593" transform="translate(166,623)"/>
<path d="M0 0 C0.66 1.32 1.32 2.64 2 4 C-1.75 8.875 -1.75 8.875 -4 10 C-5.87379605 10.07033769 -7.75001102 10.0843022 -9.625 10.0625 C-10.62789062 10.05347656 -11.63078125 10.04445313 -12.6640625 10.03515625 C-13.43492187 10.02355469 -14.20578125 10.01195312 -15 10 C-15 9.67 -15 9.34 -15 9 C-14.40832031 8.98582031 -13.81664062 8.97164062 -13.20703125 8.95703125 C-8.78774477 8.69028802 -6.56459588 8.44697174 -3 5.625 C-0.85451744 3.10256146 -0.85451744 3.10256146 0 0 Z " fill="#61A28E" transform="translate(592,598)"/>
<path d="M0 0 C0.66 0.33 1.32 0.66 2 1 C1.38511719 2.10408203 1.38511719 2.10408203 0.7578125 3.23046875 C-0.05042969 4.69419922 -0.05042969 4.69419922 -0.875 6.1875 C-1.40867188 7.15042969 -1.94234375 8.11335938 -2.4921875 9.10546875 C-3.8423678 11.69739518 -4.97098329 14.26761098 -6 17 C-6.33 17 -6.66 17 -7 17 C-7.34833144 12.12335991 -6.41685712 9.22949995 -4 5 C-3.34 5 -2.68 5 -2 5 C-1.855625 4.360625 -1.71125 3.72125 -1.5625 3.0625 C-1 1 -1 1 0 0 Z " fill="#DFF7F7" transform="translate(178,469)"/>
<path d="M0 0 C0.33 0 0.66 0 1 0 C1.03738281 0.71285156 1.07476563 1.42570313 1.11328125 2.16015625 C1.53328875 8.74539846 1.53328875 8.74539846 3.625 14.9375 C5.09818914 18.218694 5.0432589 18.77980753 4 22 C-0.22550835 14.69967977 -0.46251848 8.31248491 0 0 Z " fill="#569784" transform="translate(551,588)"/>
<path d="M0 0 C0.33 0 0.66 0 1 0 C1.70005949 2.07914664 2.38462244 4.16351586 3.0625 6.25 C3.44535156 7.41015625 3.82820312 8.5703125 4.22265625 9.765625 C5 13 5 13 4 17 C2.02 12.38 0.04 7.76 -2 3 C-1.34 2.67 -0.68 2.34 0 2 C0 1.34 0 0.68 0 0 Z " fill="#5AA190" transform="translate(202,542)"/>
<path d="M0 0 C0.66 0.99 1.32 1.98 2 3 C0.625 6.6875 0.625 6.6875 -1 10 C-5.29 10 -9.58 10 -14 10 C-14 9.67 -14 9.34 -14 9 C-12.96939453 8.85304688 -12.96939453 8.85304688 -11.91796875 8.703125 C-11.01691406 8.55359375 -10.11585938 8.4040625 -9.1875 8.25 C-8.29417969 8.11078125 -7.40085937 7.9715625 -6.48046875 7.828125 C-3.44092897 6.81334951 -2.60212429 5.72917071 -1 3 C-0.67 2.01 -0.34 1.02 0 0 Z " fill="#539581" transform="translate(403,619)"/>
<path d="M0 0 C1.03596041 3.21217256 1.07584301 3.8194214 -0.3125 7.125 C-2 10 -2 10 -4 12 C-6.3828125 12.1953125 -6.3828125 12.1953125 -9.125 12.125 C-10.49011719 12.09792969 -10.49011719 12.09792969 -11.8828125 12.0703125 C-12.58148438 12.04710937 -13.28015625 12.02390625 -14 12 C-14 11.67 -14 11.34 -14 11 C-13.32453125 10.96003906 -12.6490625 10.92007813 -11.953125 10.87890625 C-9.05741221 10.53995721 -6.69600714 10.12826631 -4 9 C-1.95976278 6.19595537 -0.91745 3.32746791 0 0 Z " fill="#3C7B67" transform="translate(331,608)"/>
<path d="M0 0 C1.30774189 2.51488825 2.3653194 4.96311477 3.375 7.625 C4.66752035 11.05021474 4.66752035 11.05021474 7.1875 12.4375 C7.785625 12.623125 8.38375 12.80875 9 13 C7.68 13.33 6.36 13.66 5 14 C0.79289518 8.84290377 -0.12440607 6.71792803 0 0 Z " fill="#457786" transform="translate(108,637)"/>
<path d="M0 0 C3 1 3 1 4.1796875 3.13671875 C5.13935044 6.48639941 5.19529282 9.33300519 5.125 12.8125 C5.10695313 13.97394531 5.08890625 15.13539063 5.0703125 16.33203125 C5.04710937 17.21246094 5.02390625 18.09289062 5 19 C4.67 19 4.34 19 4 19 C3.96261719 18.27554688 3.92523438 17.55109375 3.88671875 16.8046875 C3.50246722 11.15392978 2.93153851 6.97086964 0 2 C0 1.34 0 0.68 0 0 Z " fill="#D1F4E6" transform="translate(283,619)"/>
<path d="M0 0 C0.66 0.66 1.32 1.32 2 2 C1.91471238 6.52024387 1.44279914 8.49240099 -1.5625 11.9375 C-2.366875 12.618125 -3.17125 13.29875 -4 14 C-3.67 12.35 -3.34 10.7 -3 9 C-2.34 9 -1.68 9 -1 9 C-0.67 6.03 -0.34 3.06 0 0 Z " fill="#D8F7F1" transform="translate(402,613)"/>
<path d="M0 0 C0.33 0 0.66 0 1 0 C0.53031881 5.63617433 -0.90672313 10.21417541 -4 15 C-4.99 15.495 -4.99 15.495 -6 16 C-4.25192871 10.53262809 -2.34205919 5.24175152 0 0 Z " fill="#D7F2F2" transform="translate(173,590)"/>
<path d="M0 0 C2.08193187 2.08193187 2.96575384 3.71979715 4.1875 6.375 C4.55230469 7.14585937 4.91710937 7.91671875 5.29296875 8.7109375 C6.08442558 11.27333365 5.89234179 12.51053693 5 15 C3 14 3 14 2.1484375 12.109375 C-0.41509434 4.28930818 -0.41509434 4.28930818 0 0 Z " fill="#6DB59A" transform="translate(257,563)"/>
<path d="M0 0 C4.56454251 0.54339792 7.9728176 1.79463821 12 4 C12 4.66 12 5.32 12 6 C7.01208429 5.52496041 3.9767259 4.0298864 0 1 C0 0.67 0 0.34 0 0 Z " fill="#53828D" transform="translate(114,651)"/>
<path d="M0 0 C1.98 0.66 3.96 1.32 6 2 C6 2.66 6 3.32 6 4 C8.64 4.33 11.28 4.66 14 5 C11 7 11 7 8.6875 6.9375 C4.98060848 5.64439831 2.87265866 3.67224061 0 1 C0 0.67 0 0.34 0 0 Z " fill="#5D9690" transform="translate(178,643)"/>
<path d="M0 0 C0.66 0.99 1.32 1.98 2 3 C1.1015625 5.69921875 1.1015625 5.69921875 -0.375 8.6875 C-0.85710937 9.68136719 -1.33921875 10.67523437 -1.8359375 11.69921875 C-2.22007812 12.45847656 -2.60421875 13.21773437 -3 14 C-3.33 14 -3.66 14 -4 14 C-4.49940808 7.88225104 -3.24900602 4.97504047 0 0 Z " fill="#4B937E" transform="translate(419,613)"/>
<path d="M0 0 C0.99 0.66 1.98 1.32 3 2 C2.34 2.66 1.68 3.32 1 4 C0.59952556 6.32275177 0.2602896 8.65739357 0 11 C0.66 11.33 1.32 11.66 2 12 C0.68 12 -0.64 12 -2 12 C-2.17835515 7.45194365 -1.99785435 4.1205746 0 0 Z " fill="#478273" transform="translate(316,607)"/>
<path d="M0 0 C0.33 0 0.66 0 1 0 C1 7.26 1 14.52 1 22 C0.01 22.33 -0.98 22.66 -2 23 C-1.505 21.515 -1.505 21.515 -1 20 C-0.8535286 18.44733347 -0.75305926 16.89004338 -0.68359375 15.33203125 C-0.64169922 14.43935547 -0.59980469 13.54667969 -0.55664062 12.62695312 C-0.51732422 11.69818359 -0.47800781 10.76941406 -0.4375 9.8125 C-0.37272461 8.40194336 -0.37272461 8.40194336 -0.30664062 6.96289062 C-0.20061335 4.64207146 -0.09854971 2.32114675 0 0 Z " fill="#223132" transform="translate(837,597)"/>
<path d="M0 0 C0.99 0.33 1.98 0.66 3 1 C2.49339844 1.79664063 2.49339844 1.79664063 1.9765625 2.609375 C1.30753906 3.66898438 1.30753906 3.66898438 0.625 4.75 C0.18414063 5.44609375 -0.25671875 6.1421875 -0.7109375 6.859375 C-1.91880906 8.86517383 -2.98387737 10.89178296 -4 13 C-4 10.36 -4 7.72 -4 5 C-3.34 5 -2.68 5 -2 5 C-1.7834375 4.0409375 -1.7834375 4.0409375 -1.5625 3.0625 C-1 1 -1 1 0 0 Z " fill="#DBF5EE" transform="translate(555,575)"/>
<path d="M0 0 C0.66 0.99 1.32 1.98 2 3 C0.05279851 6.50496269 -1.82650697 9.49967216 -5 12 C-7.25 11.75 -7.25 11.75 -9 11 C-5.25 8 -5.25 8 -3 8 C-1.92474806 5.34771188 -0.90543849 2.71631546 0 0 Z " fill="#DBF3F4" transform="translate(149,643)"/>
<path d="M0 0 C0.96136276 2.59567945 1.0768013 3.7695961 0.1875 6.4375 C-0.204375 7.283125 -0.59625 8.12875 -1 9 C-1.37125 9.928125 -1.7425 10.85625 -2.125 11.8125 C-2.41375 12.534375 -2.7025 13.25625 -3 14 C-3.66 13.67 -4.32 13.34 -5 13 C-4.54554036 11.58208592 -4.08625056 10.16571954 -3.625 8.75 C-3.24214844 7.56664062 -3.24214844 7.56664062 -2.8515625 6.359375 C-2.04826333 4.13372042 -1.10288338 2.09068328 0 0 Z " fill="#558F7D" transform="translate(336,559)"/>
<path d="M0 0 C3.42931954 3.7559214 4.56429083 8.23466745 6 13 C5.01 13 4.02 13 3 13 C2.49242138 11.58603098 1.99425075 10.16868271 1.5 8.75 C1.08234375 7.56664062 1.08234375 7.56664062 0.65625 6.359375 C0 4 0 4 0 0 Z " fill="#6FB098" transform="translate(240,526)"/>
<path d="M0 0 C2.40804568 2.40804568 3.00768759 4.42203775 4.125 7.625 C4.47820312 8.62789062 4.83140625 9.63078125 5.1953125 10.6640625 C5.46085938 11.43492187 5.72640625 12.20578125 6 13 C5.01 13 4.02 13 3 13 C3 11.35 3 9.7 3 8 C2.34 8 1.68 8 1 8 C0.67 5.36 0.34 2.72 0 0 Z " fill="#6DAE9A" transform="translate(234,512)"/>
<path d="M0 0 C0.66 0.99 1.32 1.98 2 3 C1.04663979 4.31611677 0.08714226 5.62778961 -0.875 6.9375 C-1.40867187 7.66839844 -1.94234375 8.39929688 -2.4921875 9.15234375 C-4 11 -4 11 -6 12 C-6 11.01 -6 10.02 -6 9 C-5.34 9 -4.68 9 -4 9 C-3.71125 8.2575 -3.4225 7.515 -3.125 6.75 C-2.17697356 4.43260203 -1.15154089 2.22082885 0 0 Z " fill="#4B8E78" transform="translate(413,626)"/>
<path d="M0 0 C2.94366879 4.41550318 5 7.61090125 5 13 C4.34 13 3.68 13 3 13 C0.78145293 8.37802694 -0.38281159 5.23175837 0 0 Z " fill="#70B799" transform="translate(282,618)"/>
<path d="M0 0 C0.33 0 0.66 0 1 0 C1.19622241 4.21878192 0.80230168 7.17010894 -1 11 C-1.99 11 -2.98 11 -4 11 C-3.52269162 9.5410574 -3.04308958 8.08286504 -2.5625 6.625 C-2.29566406 5.81289063 -2.02882813 5.00078125 -1.75390625 4.1640625 C-1 2 -1 2 0 0 Z " fill="#558291" transform="translate(112,616)"/>
<path d="M0 0 C4.4114727 3.23507998 4.84694558 6.84557192 5.703125 11.953125 C5.80109375 12.62859375 5.8990625 13.3040625 6 14 C2.70271893 9.79758295 0 5.47038401 0 0 Z " fill="#4D917B" transform="translate(391,587)"/>
<path d="M0 0 C0.66 0.33 1.32 0.66 2 1 C0.02 5.455 0.02 5.455 -2 10 C-2.66 9.67 -3.32 9.34 -4 9 C-3.38461538 3.46153846 -3.38461538 3.46153846 -1.4375 1.125 C-0.963125 0.75375 -0.48875 0.3825 0 0 Z " fill="#518E91" transform="translate(177,578)"/>
<path d="M0 0 C-0.33 0.99 -0.66 1.98 -1 3 C-2.33333333 3.66666667 -3.66666667 4.33333333 -5 5 C-6.73425773 7.03317007 -6.73425773 7.03317007 -8 9 C-8.99 8.67 -9.98 8.34 -11 8 C-9.54712339 6.66072279 -8.08752741 5.32873153 -6.625 4 C-5.81289063 3.2575 -5.00078125 2.515 -4.1640625 1.75 C-2 0 -2 0 0 0 Z " fill="#529680" transform="translate(567,569)"/>
<path d="M0 0 C-0.1875 1.8125 -0.1875 1.8125 -1 4 C-3.5625 5.75 -3.5625 5.75 -6 7 C-6 5.68 -6 4.36 -6 3 C-2.78571429 0 -2.78571429 0 0 0 Z " fill="#1F2A2F" transform="translate(688,570)"/>
<path d="M0 0 C-0.33 0.66 -0.66 1.32 -1 2 C-2.58294782 2.05437607 -4.16644256 2.09296271 -5.75 2.125 C-6.63171875 2.14820313 -7.5134375 2.17140625 -8.421875 2.1953125 C-11.1135858 1.99139502 -12.69904974 1.36551721 -15 0 C-10.1648862 -1.6117046 -4.80348505 -1.60116168 0 0 Z " fill="#5A9180" transform="translate(358,547)"/>
<path d="M0 0 C1.07033136 3.21822604 0.95795392 5.03142433 -0.25 8.1875 C-0.62898437 9.22970703 -0.62898437 9.22970703 -1.015625 10.29296875 C-2 12 -2 12 -5 13 C-3.58192622 8.52761347 -1.88695626 4.28853694 0 0 Z " fill="#5D9094" transform="translate(166,497)"/>
<path d="M0 0 C-7.87746171 4.23632385 -7.87746171 4.23632385 -12.5625 3.25 C-13.366875 2.8375 -14.17125 2.425 -15 2 C-15 1.67 -15 1.34 -15 1 C-12.87630763 0.63807496 -10.7509887 0.28568253 -8.625 -0.0625 C-6.84996094 -0.35833984 -6.84996094 -0.35833984 -5.0390625 -0.66015625 C-2 -1 -2 -1 0 0 Z " fill="#D7EFF1" transform="translate(140,656)"/>
<path d="M0 0 C0.66 0 1.32 0 2 0 C0.66666667 4 -0.66666667 8 -2 12 C-2.66 12 -3.32 12 -4 12 C-3.52309796 10.37433394 -3.04340334 8.74948689 -2.5625 7.125 C-2.29566406 6.22007812 -2.02882813 5.31515625 -1.75390625 4.3828125 C-1 2 -1 2 0 0 Z " fill="#E0FAF6" transform="translate(321,590)"/>
<path d="M0 0 C0 0.33 0 0.66 0 1 C-0.928125 1.268125 -1.85625 1.53625 -2.8125 1.8125 C-5.8311641 2.93710035 -6.9155143 3.70706573 -9 6 C-9.66 6 -10.32 6 -11 6 C-10.6875 4.125 -10.6875 4.125 -10 2 C-6.3558226 -0.4294516 -4.28758728 -0.16179575 0 0 Z " fill="#5E9886" transform="translate(436,567)"/>
<path d="M0 0 C2.97 0 5.94 0 9 0 C9.33 0.99 9.66 1.98 10 3 C6.37 3 2.74 3 -1 3 C-0.67 2.01 -0.34 1.02 0 0 Z " fill="#E5FCF7" transform="translate(387,565)"/>
<path d="M0 0 C1.32 0.33 2.64 0.66 4 1 C4.66 3.31 5.32 5.62 6 8 C5.34 8.66 4.68 9.32 4 10 C3.34 7.69 2.68 5.38 2 3 C1.34 3 0.68 3 0 3 C0 2.01 0 1.02 0 0 Z " fill="#323E3F" transform="translate(1002,547)"/>
<path d="M0 0 C3.63 0 7.26 0 11 0 C8 3 8 3 5.95703125 3.07421875 C2.97851562 2.53710938 2.97851562 2.53710938 0 2 C0 1.34 0 0.68 0 0 Z " fill="#C9E8DE" transform="translate(486,620)"/>
<path d="M0 0 C0.66 0 1.32 0 2 0 C2.33 1.65 2.66 3.3 3 5 C0.625 6.5625 0.625 6.5625 -2 8 C-2.66 7.67 -3.32 7.34 -4 7 C-2.68 4.69 -1.36 2.38 0 0 Z " fill="#C9F2EB" transform="translate(232,617)"/>
<path d="M0 0 C1 3 1 3 0.22265625 5.04296875 C-0.16019531 5.75066406 -0.54304687 6.45835937 -0.9375 7.1875 C-1.31777344 7.90292969 -1.69804687 8.61835937 -2.08984375 9.35546875 C-2.54037109 10.16951172 -2.54037109 10.16951172 -3 11 C-3.33 11 -3.66 11 -4 11 C-4.36630156 7.06225823 -4.30233203 5.43460229 -2 2.125 C-1.34 1.42375 -0.68 0.7225 0 0 Z " fill="#4F8B8D" transform="translate(169,597)"/>
<path d="M0 0 C1.1079276 3.32378281 1.11204374 5.66386877 0 9 C-2.0625 10.8125 -2.0625 10.8125 -4 12 C-2.66666667 8 -1.33333333 4 0 0 Z " fill="#4F8D7C" transform="translate(327,580)"/>
<path d="M0 0 C0.39832031 0.47050781 0.79664063 0.94101562 1.20703125 1.42578125 C3.3617393 3.31760553 4.89091882 3.66060789 7.6875 4.1875 C8.49574219 4.34605469 9.30398438 4.50460937 10.13671875 4.66796875 C11.05904297 4.83232422 11.05904297 4.83232422 12 5 C12 5.33 12 5.66 12 6 C10.37536158 6.05395478 8.75021459 6.09277195 7.125 6.125 C6.22007812 6.14820313 5.31515625 6.17140625 4.3828125 6.1953125 C2 6 2 6 0 4 C0 2.68 0 1.36 0 0 Z " fill="#3B7B64" transform="translate(372,614)"/>
<path d="M0 0 C2.96052484 3.36423277 3.92289822 6.69159287 5 11 C4.34 11 3.68 11 3 11 C0.84694043 7.14243493 -0.39253254 4.44870215 0 0 Z " fill="#6EAF9B" transform="translate(227,497)"/>
<path d="M0 0 C4.43458973 1.3937282 6.87378374 3.60582235 10 7 C9.01 7.33 8.02 7.66 7 8 C6.5875 7.38125 6.175 6.7625 5.75 6.125 C3.94426121 3.93231719 2.5909466 3.07211583 0 2 C0 1.34 0 0.68 0 0 Z " fill="#64A492" transform="translate(205,464)"/>
<path d="M0 0 C0.66 0 1.32 0 2 0 C2.66 1.65 3.32 3.3 4 5 C2.02 5.66 0.04 6.32 -2 7 C-1.34 4.69 -0.68 2.38 0 0 Z " fill="#D6F4F5" transform="translate(160,618)"/>
<path d="M0 0 C3.0625 0.3125 3.0625 0.3125 6.0625 3.3125 C2.4325 2.9825 -1.1975 2.6525 -4.9375 2.3125 C-2.9375 0.3125 -2.9375 0.3125 0 0 Z " fill="#E3FAF2" transform="translate(490.9375,564.6875)"/>
<path d="M0 0 C1 4 1 4 0.22265625 5.921875 C-0.8515625 7.61458333 -1.92578125 9.30729167 -3 11 C-3.66 10.34 -4.32 9.68 -5 9 C-3.35 6.03 -1.7 3.06 0 0 Z " fill="#222E31" transform="translate(670,553)"/>
<path d="M0 0 C-1.90401138 1.90401138 -3.33425686 2.93520439 -6.046875 3.19921875 C-8.03233273 3.1886578 -10.0169914 3.09915043 -12 3 C-7.85930434 0.85826087 -4.68855996 -0.12671784 0 0 Z " fill="#609590" transform="translate(209,648)"/>
<path d="M0 0 C0 0.33 0 0.66 0 1 C-1.5778125 1.433125 -1.5778125 1.433125 -3.1875 1.875 C-6.22818711 2.77225193 -9.08712344 3.76423419 -12 5 C-9.28085049 -1.02097391 -6.0998139 -0.0983841 0 0 Z " fill="#3B464A" transform="translate(744,567)"/>
<path d="M0 0 C2.15377564 2.62198774 3.40072174 4.64404172 4 8 C3.01 8.33 2.02 8.66 1 9 C0.67 6.03 0.34 3.06 0 0 Z " fill="#6CB597" transform="translate(278,610)"/>
<path d="M0 0 C1.98 0 3.96 0 6 0 C5.67 0.99 5.34 1.98 5 3 C5 2.34 5 1.68 5 1 C4.01 1.66 3.02 2.32 2 3 C-0.33199388 3.07905064 -2.66832622 3.08798769 -5 3 C-5 2.67 -5 2.34 -5 2 C-3.35 2 -1.7 2 0 2 C0 1.34 0 0.68 0 0 Z " fill="#DDF7EE" transform="translate(539,605)"/>
<path d="M0 0 C2.64 0 5.28 0 8 0 C7.67 0.66 7.34 1.32 7 2 C3.9375 2.625 3.9375 2.625 1 3 C0.67 2.01 0.34 1.02 0 0 Z " fill="#D5EBEA" transform="translate(193,651)"/>
<path d="M0 0 C2.31 0 4.62 0 7 0 C6.01 0.66 5.02 1.32 4 2 C3.34 2.66 2.68 3.32 2 4 C1.34 4.66 0.68 5.32 0 6 C0 4.02 0 2.04 0 0 Z " fill="#438B72" transform="translate(389,629)"/>
<path d="M0 0 C0.33 0.99 0.66 1.98 1 3 C-0.75 4.5625 -0.75 4.5625 -3 6 C-5.25 5.6875 -5.25 5.6875 -7 5 C-6.030625 4.360625 -5.06125 3.72125 -4.0625 3.0625 C-1.23963731 1.3034741 -1.23963731 1.3034741 0 0 Z " fill="#DBF6EE" transform="translate(601,613)"/>
<path d="M0 0 C0.33 0.99 0.66 1.98 1 3 C-2.57644848 4.2380014 -5.33694766 3.74926071 -9 3 C-9 2.67 -9 2.34 -9 2 C-6.03 1.34 -3.06 0.68 0 0 Z " fill="#69AA95" transform="translate(478,605)"/>
<path d="M0 0 C0.33 0 0.66 0 1 0 C1.25 5.625 1.25 5.625 -1 9 C-1.66 9 -2.32 9 -3 9 C-2.01 6.03 -1.02 3.06 0 0 Z " fill="#DCF7F6" transform="translate(186,561)"/>
<path d="M0 0 C0.66 1.32 1.32 2.64 2 4 C0.75 6.75 0.75 6.75 -1 9 C-1.66 9 -2.32 9 -3 9 C-2.01 6.03 -1.02 3.06 0 0 Z " fill="#D7F3F1" transform="translate(194,543)"/>
</svg>
